<svg xmlns="http://www.w3.org/2000/svg" viewBox="0 0 30 30"><defs><style>.cls-1{fill:#475993;}.cls-2{fill:#fff;}</style></defs><title>facebook</title><g id="Layer_2" data-name="Layer 2"><g id="wireframe"><rect class="cls-1" width="30" height="30" rx="2.73" ry="2.73"/><path class="cls-2" d="M23.66,14.51H19.53V11.62c0-1.31.36-2.2,2.24-2.2h1.74a.66.66,0,0,0,.66-.66V5.84a.66.66,0,0,0-.66-.66H20.67c-3.46,0-5.82,2.11-5.82,6v3.34H12.07a.66.66,0,0,0-.66.66v3.46a.66.66,0,0,0,.66.65h2.79l0,10.72h4.68l0-10.72h3.7a.66.66,0,0,0,.65-.58l.41-3.46A.66.66,0,0,0,23.66,14.51Z"/></g></g></svg>