<svg id="Layer_1" data-name="Layer 1" xmlns="http://www.w3.org/2000/svg" xmlns:xlink="http://www.w3.org/1999/xlink" viewBox="0 0 627.05 848"><defs><style>.cls-1,.cls-11,.cls-26,.cls-8,.cls-9{fill:none;}.cls-2{clip-path:url(#clip-path);}.cls-3,.cls-9{opacity:0.3;}.cls-4{fill:#a4aad6;}.cls-5{fill:#faa634;}.cls-6{opacity:0.6;}.cls-7{fill:#0b2644;}.cls-8{stroke:#faa634;stroke-width:2.13px;}.cls-11,.cls-8,.cls-9{stroke-miterlimit:10;}.cls-11,.cls-26,.cls-9{stroke:#fff;}.cls-10,.cls-12,.cls-16,.cls-29{fill:#fff;}.cls-12{font-size:14px;}.cls-12,.cls-29{font-family:Montserrat-Bold, Montserrat;font-weight:700;}.cls-13{letter-spacing:0em;}.cls-14{letter-spacing:0em;}.cls-15{letter-spacing:-0.01em;}.cls-16,.cls-29{font-size:13px;}.cls-16{font-family:Montserrat-Regular, Montserrat;}.cls-17{letter-spacing:-0.01em;}.cls-18{letter-spacing:-0.01em;}.cls-19{letter-spacing:0em;}.cls-20{letter-spacing:-0.02em;}.cls-21{letter-spacing:0em;}.cls-22{letter-spacing:0em;}.cls-23{letter-spacing:-0.01em;}.cls-24{letter-spacing:-0.01em;}.cls-25{letter-spacing:-0.01em;}.cls-27{letter-spacing:-0.01em;}.cls-28{letter-spacing:0em;}.cls-30{letter-spacing:0.01em;}</style><clipPath id="clip-path"><rect class="cls-1" width="627.05" height="848"/></clipPath></defs><title>map-2</title><g class="cls-2"><polygon class="cls-1" points="210.8 537.99 209.53 538.49 212.67 537.99 215.7 534.83 216.23 533.88 215.97 534.1 210.8 537.99"/><polygon class="cls-1" points="216.94 533.29 219.49 532.24 217.97 532.44 216.94 533.29"/><path class="cls-1" d="M195.47,196.38l-.3.41.8-.23h1l1.12-1.2-.78.11-.68,1Z"/><path class="cls-1" d="M200.49,195.47l-.43-.85-1.5,0,0,.65h-.08l1.08.13,2.62,1.82.73.24c-.24-.43-.72-1.28-1.2-2.1Z"/><polygon class="cls-1" points="363.81 780.95 362.3 782.67 362.09 785.34 366.25 781.63 363.81 780.95"/><polygon class="cls-1" points="214.83 273.02 213.24 271.48 212.95 269.54 212.46 269.62 212.06 273.17 211.63 273.61 213.31 272.19 214.83 273.02"/><path class="cls-1" d="M149.58,667.26l.21-.92-1.67-2.08,2.43.3v-.35l-1-1.62-1,1.16-2.45.67Z"/><polygon class="cls-1" points="218.68 774.66 218.19 774.23 218.05 775.88 218.47 780.45 219.9 781.17 220.13 779.02 218.85 777.67 218.68 774.66"/><path class="cls-1" d="M448.35,731.67l.22.22-.44-.79-3.65-.45,2,1.77Z"/><path class="cls-1" d="M119.72,378l-5,4.8-1.22,4.47,2.41,1.24,3-.81,3.34,1.39,1.52,2,2.09-3.36,4.69-4.22c-.95-3.49-.95-3.54-.95-3.62s0-.2,4.49-7.86l-3.47-.38-4.45,1.48-1-3.84-1.07-1.22-.41,2.63Z"/><path class="cls-1" d="M194.87,222c0,.7,0,1.49,0,1.49v.31l.47-1.39Z"/><polygon class="cls-1" points="165.44 269.49 164.96 268.03 165.24 269.75 165.44 269.49"/><path class="cls-1" d="M437.29,725.74c-.23.81-.41,1.06-.65,1.13l.36,0,.42-1.07Z"/><polygon class="cls-1" points="217.15 276.26 215.53 273.7 215.37 273.54 216.24 275.46 217.15 276.26"/><path class="cls-1" d="M462.58,727.59l1.17,2-.37-2.09Z"/><polygon class="cls-1" points="437.63 725.82 441.84 727.26 443.09 729.33 442.09 730.07 443.09 731.21 444.22 730.61 443.69 730.54 443.31 729.08 442.77 727.01 437.63 725.82"/><polygon class="cls-1" points="207.48 198.26 207.28 198.14 204.78 198.09 205.36 198.28 207.48 198.26"/><g class="cls-3"><path class="cls-4" d="M404.86,716.22l0,3.4h-1l.06,3.37-1.24,1.13-.79,2.18,1.33.66h1.54l-.13,2.18.55.6,1.17-.15.16.24.55.79.76-.1.58-.08-.15,2.1,1.74-.07,1.11,1.21-.07.67.8-.06,1.53,1.42-1.21,1-.06,1.14-1.31,1.09-.16.67-.33.54.43.36.75-.71.21-1.24,1.3-1-.12-1.31,2.78-.17v1.08l.85-.11,1.29,1.44-1,1.34-.08.51.91-.56,1.91-.18-.1,1.59.84.51v2.92l1.28.73,1.69-.82.88-2,2,.07,1-2.12,2.4,1.41v1.2c.32.43,1.59,2.07,2.48,3.21h2.24l1.71-4.63H437l.78-.51-.14-5,1.11,1.18,0-2.77,1.28-1.28.5.09v-.92l1.89.08.11-.64-1.78-2,1.14-.83-.63-1L438,726.93l-.32.8-3.24.26-1.27-1.4.81-.16c1.36-.28,2-.39,2.26-.44a9,9,0,0,0,.28-.92l.11-.44,6.91,1.6.45,1.71,3.07-3.89,0,1.4,0,.78.84-1,.14-.16,1.71,0v-2.17l-2.06-2.17-2.27-3.92-5.29-.1-1.76,1.1-2.14.15-.76-1.17-1.18.17-1.48-1.48,1-1L431,712.88l1.22-1.22v-1.2l-.53,0-.87-.95-1.82.18-1.64-1.18H424v.75l-1.23,1.13h-1.14l-1.44.8h-1.57v1.11l-5-.17-.84,1.09-1-.13-.88,1.06-2.58.07.14-1.15h-2.71l-1.06-1.2,0,.48-1,1.43Zm19.28,3.37,3.32-6.71,3.31,6.71,7.41,1.08-5.36,5.22,1.27,7.38-6.63-3.49-6.63,3.49,1.27-7.38-5.36-5.22Z"/><path class="cls-4" d="M464.7,729.66l1.13.4.12-.95-1.77-2.41,0,.21C464.52,728.57,464.64,729.31,464.7,729.66Z"/><path class="cls-4" d="M454.46,612.93l-4.1.82-2.65,3.76-6.41,1.15.23-1.21h-2.3l-2.92,2.18-3.63-3.07h-.85l-2,2.22-2.8-3.1-2.57.92h-5.63l-1.59,1H417l.73,1.3-2,2.74,1.43,1.47,3.12-.22.6,3.51,2.18,4.33v4.21h-1.35l-2.5,4.68h-1.32L413,643l.6,1.19.82.93,0,0,.71,1h-.44c0,.23,0,.48,0,.48l0,.4-2.51.47-4,4.47v2.31l-3.36-3.63-2,.72.94,2.59-2,3.47,1.84,1.8.94,7.06-.46.06-.79.1,0,.07a33,33,0,0,1-3.13,4.81l.78,1-2,3.59,0,3.2-1.86,2.46,0,1.22-.9.62,0,.6.49-.49,6,5.86.86,3.36-2.36,2.22-2.69-1.82-1,1L395.86,692l-1-2.68-2.51.94,4,5.52.07,1.26L398,698.5h1.09l.06,3,2.35,1-1.5,1.24.1,1.41.54.61h2.93l1.24,1.5-2.35,2.27h.5l-.08,3.74h.05l.79-1.16.13-2.5,2.3,2.6,3.35,0-.13,1.12,1.07,0,.93-1.13,1,.13.81-1,4.5.16v-1.08h2.27l1.44-.8h1l.66-.6v-1.28h4.6l1.59,1.15,1.93-.19.89,1,1.07-.06V712l-.65.65,2.76,1.68-1.14,1.14.49.49,1.31-.19.78,1.21,1.36-.1,1.8-1.12,6.09.12,2.5,4.33,2.21,2.32v3.5l-2.22,0c-1.62,1.86-1.63,1.86-1.89,1.86H446v-.47s0-.29,0-.62l-1.78,2.26.16.62,4.28.53.12.21c.39.71.83,1.5,1,1.8l3.58.74,4.79-4,4.07,0L461,726.82l3-.34-1-1.32,5.12,2.17,4,.52,3.93,1.22,2.32-1-.23-1.29-3.33-.9-.75-2.17,8.22.33-.72,1.83,0,1,4.24-3.56-4.64.32-1.47-3.37,6.61-1,1.26-2.05-.52-6.52-8.34,4.39-3.28-.08-2.12-2.91-.62-2.81h7.62l4.08-1.66-2.24-1.17,3.06-1.84,3.13.16.82,1.59,1.6-.86-2.56-1.69,2.17-4.89L493.1,701l1.27,1.76,2.49-.71-1.22,3.14,2.13,2.86,5.3-1.48.82-.8,3-1.82,2.35-2.26v-.7l-3.34,1.35-1-4,3-1.52,1.4-2-.86-.87-10.6-.36-1.58-3,3.62.07,3.11-.67,2.87,1.9,3,.17-.6-2.06-4.05-2.54.24-.73-1.61-1.14,2.39.17,5.25,2.33,1.36,5.66,2.65-1.39,1-2.41-2-7-2.23-1.51,1.71-2.4,2.43-1.19,2.21,10.8,1.34-.11.3-1.22,3.27-3.54,4.94-1.59,1-1.57,2.33-6,.24-2.21,3.22-10,2.47-1.94,3.08-6.93-.32-2.8,1.26-1.61-.56-2.26,2.65-1.32-1.31-1.63v-3l-.88-1.66.49-1.31.26-4.15,1.13-.78.2-1.77-1.26-.5.51-4.12-1.5-1.2-1.1-4.68-3-4.08-1.55.61L530.89,611l-9.16-8.52-4.41-2.81c-4.14.77-4.2.77-4.26.77s-.16,0-7.7-3.06l-6.94.18-5.53-3.63-15.19.25-3.33,2.66-1.62,6.87-6.11,5.75-5.49-1.57-1.5,3.14Z"/><path class="cls-4" d="M354,524.84a16.79,16.79,0,0,1,1,3.92l6.52,10.09-1.07,1.88,1.09,1.65.28.15-.08.16,1.92,2.89.89-.93,2.76,2,.41-.14,3-1.23,0,.69,1-1.2,3.76,0-.18,2,1.91.87.77-1,1.64,0,2.57,2.8,3.36-.88.69-.88h1.21l.36-.51-.92-1,2.19-2.23c.25-.49,1.73-3.38,2.49-4.46l.14-.2,4.87.05,3.19-3.83h0l2.68-3.22.59,2.71.11.14,0,0-.07.13.41,1.88.9.13.08,0h0l.24,0,.32-.11.61-.14,1,.47.73.36.62.25,1.44.17a38.26,38.26,0,0,0,3.42-5.09l.15-.61,7.41,4.27-1,2.66,4.36.82,3.75-.9-1.07-2.73,4.21-1.68L426,532.37l5.81-2.36,3.33,1.81,3.92-4.56,6.2,5.23-2,3.62.91,4.44,2.48,4.19L449,544l1.86-7.21,1.36,1.56,2.55-.67L453,536.27l.36-1.85-4.87-3.21c-.07,0-.13-.09-4.13-4.64l-.07-.1L441.59,521l-3.27-1.78-3.67,1.15L431.82,519l-5.34,2.26-4.23-4.48-4.61,1.74v-2.67l3.72-1.51,3.49-.06,3.15,1.9c.79,0,4.72-.23,7.06-.38a19.62,19.62,0,0,0,5.09-1.2l.21-.08,3.78,2.07,5.55,8.81,4,2.26.69-.08,1.77-1.87,6.86,4.35-.16.37-1.2,2.75,1,.09,1.19-1.42-4.18-10.43L457.78,520,458,518l-8.78-15.65,1-3.78-1.06-1.15-.38-11.23,6.43-4.58-.2-1.25-1.83.21-1.24-2.1-2.2.19-2.9-3-1-4.68-4.42-4.22-1.06-5.14-1.95-4.07-1.36-4.38-1.69-5.62-5.85-5.75-2.95-.7.79-1.41-4-2.14L419.81,443l-.37-.18c-3.16-1.54-9.67-1.77-9.74-1.77h-.21l-.78-.95L407,440l-2.41-.91-3.56,0-.72-1-.52.08L398.26,440l-7.37,1.15V439l-.87,1.06v-1.9h-.17l-1.78,3.08v-2.06l-1.22,0-1,1.8-.42-.26c-.18-.11-4.44-2.75-5.28-5-.57-1.52-4.26-2.62-5.63-2.92l-.16,0-.65-.81-.33.58L360,438.27h-.77l-4-3.69-3.72.88H348l-6,.82c-.12.76-.38,2.81-.59,4.41l-.08.65,0,.28-4.63,1.8,1,9.35-8.55,1.89-6.29,7,3.81,6.21-.1,2.7,5.4.73,3.55,7.44h2.75l2.2,2.94-.07,2,3.63,2.47,0,2.18,2.8,4.57-1.21,2.28-.14.07s-2.8,1.31-3.81,1.86c-.5.26-1.1,2.4-1.35,4.24l0,.23-2.78,1.62a7.12,7.12,0,0,1,.94,4.13l1.26.68H344l0,5.92a21.64,21.64,0,0,1,2.66,3.38l1.35,3,1.38,1.67,4.6,2.72Z"/><path class="cls-4" d="M355.46,433.55l4.1,3.78h.31l12.88-5.48.85-1.5,1.31,1.62c1,.23,5.35,1.34,6.15,3.47.54,1.43,3.11,3.34,4.47,4.24l.76-1.4,2.44,0,.58-1,1.65,0v.23l.87-1.06V440l6-.93,1.56-1.77,1.44-.22.77,1.12,3.24,0,2.51.94,1.86,0,.79,1a45.81,45.81,0,0,1,5.67.62l.87.17.82.19c.54.14,1.07.29,1.56.47l.61.24,3.61-5.52.07,0,.13-.13L417.92,435l-1.81-2.2-1.61.49L411,431.39l-1-2.82-3.87-2.18-1.3,3-2.77-1.6,1.75-4.54-.77-1.75,1.46-.75-3.35-3-2.65-4.64-.3-6.85-.8-1,0-4.46-2-1.93,2.12-.7.45-2.31-.44-3.36-1.56-1.72.1-2.1-1.83-1.76.35-3.57L393,381.1l-.17-2.57-2.54-1.83,3.6-2.91,0-2.77-1.59-.35-.7-3.28.2-6,1-.09-2.34-5.59,1.31-3,1-6.2-1.15-4.05,1.12-1.47-.72-1-.44-4.11-2-2.07-5.5-2.17L376,317.37l.32-3-1.53-2.65-2,2.67-4,3.56L364,322.18l-2,3-2.91-1.12-2.1.82,6.46,16.42-10.2,5.73v3.07h-8l-3.12,3.14-2,1.1-8.22,8.88c2.64,6.25,3.46,8.19,3.71,8.84.7.25,3.51,1.19,5.29,1.78l.4.13-1.12,5.41-4.63.76-.88,5.55-2.55,5.94v3.86c.49,1.07,1.21,2.64,1.5,3.25,1.11-.14,5.11-.71,7.85-1.1l.26,0,4.14,5.09-2,6.51-1.83,2.7,3.14,4.94-2.22.91.08,3.43,5.44,6,1.07,2-.12,5.23-.15.11h2.07Z"/><path class="cls-4" d="M74.68,406.8l1.62,0,0-3.9-2.09-2.84,2.57-4.39,1.94,1L82,394.24l1.76-2.1,3.27-2,4.24,3.52L93,396.15,92.94,398,94,399l.91,2-1.81,3.47L93,406.19l1.89.86L94.75,411l3.3,4.69.68-.69,2.22-1,2.11,3.31v3.06l-2.68,4.44v2.94l.68,2.73,1.07-.55,1-1.16,4.68,1,2.13-2.22,2.79,3,1.35-.52,2.17-4.64,2,3.13,1.72-1.93,2.12,2.33H125l7.74,8.22,1.6-1.71h2.16l3.39-2.74,3.32-7,.13-3.13,3-2.37,3.36-6.27-.89,3.72c-.31,1.37-.48,2.06-.58,2.42,1,.54,4.91,2.2,7.55,3.31l2.31-2.52,5.72-3.88h.73l-.77-4.75L163,410.6l-4.65,1L157,410.14l3.1-2.81,1.68-3.57-1.23-1.28,0-1.9,1.2-3.27-1.74-1.46-.14-3.26,1.33-1.43,1.61.19,4.58,4.63,1.08,5.59.11,3.17-1.24,2.15h-.93l.14,6.88.46,1,3.24-4.69-.27-4,2.13-5.1-1.8-9.12-.14-4.19.68-.62-1.56-2.37-2.85-.72-2.39.2-3.63-2-5.1,1.45-1,1.58-1.5-1.53-2.08-.73,1.13-3.55h2.25l4.44-2.83,2.41-.36,2.79-1.22,1-1.7-.12-6.89-3.39-.63-1.13-2v-1.24L159,361l-4.63-9.36,1-7.52-3.71-2.72.1-1.57,1.82-4.34L150,326.86l-5.21,1.29-1.22-1.54-5.2-3.21-7.52-1.08L126,324.39l-5.67-.29-1,1-6.91.05-6.12-.95-4,5.78-2.33,2.39-6,.21-3.26-1.12H88.32v-1.41l-3.57.85-.18-.27c-.19-.29-.42-.62-.58-.82l-1,.44-3,2.84-.74,5.67-2.86.22-.64,3.23-.32,2.14-1.6,3.89H72.25c-.59.8-.76,1-.92,1s-1.48.95-2.51,1.63L66.59,353l-3.25,3.25.09-1.71-4.68.09-6.12,1-1.71-2.8-4.06,1.58c-.12.53-.41,2.05-.63,3.24.85.62,1,.77,1,.94s.67,1.29,1.2,2.27l2-.2,5.86,2.12.06,3.67-6,.9-3.68,3.91-8.27-2.89-2.58,2.65-3.79,1.67-.87,1.16-3.42-.8v.26L30,377.82l2.24,6.36,2.93,3.57.67,2.6,2.43.68,1.48,1.52-1,7.25,2.56,1.82L47.43,404l3.35,2-.13,2.08,3.21,2.38,1,1.22,1.57.62,2.75-1.18a14.29,14.29,0,0,1,1.8-.59l1.14-.29L61,412.1l1.6,1.46,1.32.6.86.8.61-.51.33-2.17,1.59-3.5v4.94L69,412.61l1.73-4.88Zm39.19-24.48,5.15-4.93,3.82-7.06.64-4.4,2.56,2.92.77,3.08,3.69-1.23,5.12.56-.37.62c-1.71,2.91-4.24,7.24-4.7,8.07.14.54.64,2.4,1,3.59l.08.28-5.07,4.56-2.68,4.35-2.2-2.83-2.82-1.17-3,.82-3.41-1.76Z"/><path class="cls-4" d="M341.26,665.36l-1.34-2-1.14-3.48-1.44-1.23-.51-1.25-.61.54-3.34,1.78-1.6,0L333,664l-1.44,2.51-4-4.76-5.21,1.73-1.46,1-1.35.07-2.59-1-2,1L313.43,663l1.58-2.49-1.65-.63-.59,1.65,1.2,3h-2.11l-4.95,1.78-2.41-.09-.12-.26c-.33-.69-1.27-4.14-1.59-5.3l-2.13-.07v.82l-1.42,1.38-2.4-2.51-.35-.86L294.36,664l.91,1.5v.15a16.54,16.54,0,0,0,1.15,5.65l.27.69-3-.2c-2.4,1.92-2.44,1.92-2.64,1.92l-3.18-.08V675l-2.23-1.29-2.34,2.52-1.87,2.54.1,3.78-1.92,1.81-.06,1.61,1.92,1.48h-1.91l-.07,1.53-.84.85v.34l1.87-.21-1.86,1.76v.37h1.12l-.29,1.36,0,.66.1.16,3.23-4.75,4.71-1.94,3.1-3.06,3.47-1.58-.7-.58.47-3.53,4.61,5.76L291,688l-10.81,9-3.91,6.54,1.66,4.14-2.79,0-1.35-2.44-1.79-.2L265,710.54l-1,3.84-5.38-1.23.64,1.54L256.57,717l-.55,4.84-1.27-1-.72,3,1.26,2.42-.25.24c-.25.24-.63.6-.91.84.2.41.71,1.27,1.17,2l.26.4-1.92,1.2.57,3.88-1.59,2.22-2.18-2.82,1-4.84c-.6.31-.77.31-.84.31l-10.06.18-3.09,1.18-1.48-1.2-7.72-1.09-.79-2.68-2.31-.78v-1.7l-4.22-1.35-.18,1.13-9.3-2-2-1.27-5.77-.27-.72,1.61L200.6,720l-7.09-.64-1.28,1.39-3.87-1.41-4.8.27-1.6,4.69-1.47-.46.08,1.49,1.93,4.06h6l2.62,2.31-7.22-.22L181.58,736l-2.66,1.12,1.76-3.93c-.19-.18-.44-.44-.61-.62a10.83,10.83,0,0,0-1.94.55l-3.83,3.57-3.43.25-2.4-2.63-1.89.14-4-1.75-1.3,1c-.17.7-.74,4.08-1.08,6.19l0,.2-.17.11c-.56.39-1.25.84-1.65,1.05-.08.75,0,3.67.08,6.31v.1L156.38,753l-5.94,3.8v1.66l-3.34,2.84h-2l-2.9,1.32c-.07.36-.2,1.2-.29,1.84-.35,2.35-.36,2.36-.59,2.51l-.47.36c-2.86,2.2-2.9,2.2-3.11,2.2s-.39,0-1.48-2.2c-1.65,1.42-1.73,1.42-1.92,1.42a22.37,22.37,0,0,1-2.79-.77l-.24,3.83-1.83-1.58-3.54,1.5-.34-1.08-.6.4v3.42l-1.66.56-.43,3.66L119,782.88l-2.18-.82-1.49.68.8,1.6-3.53,5L109,790l-2,2.6-.13,0c-1.43.51-2,.68-2.17.73s-1.47,1.22-2.53,2.14l-.2.17-.25-.08-3-.95c-.49.63-2,2.69-3.24,4.54l-.2.29-3.42-1.1L91.13,796l-1.48-.24L86.59,797,84,799.72H80.24l-2.89,2.42,1.07.75-.59,2.75-.16.11c-.71.47-1.12.74-1.36.89v1.28l.9.41,1.14,2.1L85,809.11l1.47-2.21-.77-2.16,2.25-1.82.26.11c3.15,1.33,3.38,1.42,3.39,1.74s.39.93.7,1.64l2.93.61,1,1.39,2.52.08L101,811l1.09,5-.71,2.59,1,2.86,2,1.18,2.77-3.62,3.71.9,3.34-3.52-1.12-3-3.13-1.54-.25-2.48,3.07,1.13,1.62-3.31,1.14-.23-.48-1.17.74-2.48L114.13,802l2-1.35,3,.84-.82,5.93,1.52-.54,1.58-3.19,3.46.08,3.81-3,4.37,1.42,1.24-1.33-.89-1,.1-.26c.38-1,.8-2.23.84-2.42s0-.38,1.61-1.24l.15-2.21,5.49-2,.22,3.87,2-.77,3.6.12,5.34,1.48.35-1.26-1.19-1.67,1-2.2,3.12,2.64,8.44.74,3.37,2.94v2.62l1.8.39v-2.33h1.38v-.32l-1.49,0-2.2-1.69.69-1.09-5.72-2.66,2-2.25,1.25,1.57,2.78,1,1.9-.9,1.32,2,.38,2,3,1.44-.12.39c-.19.59-.39,1.24-.46,1.48s.34,1.15.61,2l2.38.16-.23,1.75,2,.85,2.91-.45,2.82,1.88c5.11.72,5.11.73,5.11,1.19v.25l-.1.07c-.21.5-1,2.7-1.56,4.24l1.68,1.47,1.05,1.8,1.37,0,.25-3,3.12,4.69,2.45-2.07,1.65.65.73-5.14,2.34-3.69,1.87.28,1.61-.37-.84-3.38,2.77,2.49,1.51-.57.17-2.37,1.51-.43-.9-1.26-2.51-.55-.16-3,.14-.15s2.06-2.1,2.58-2.79a7,7,0,0,1,2.07-1.48l-.78-4.32-2.44,0,.1-2,5.56-.39,1.47-1.51.2-1.75,1.22-.84-.51-.25-.47-5.17.3-3.6,2.18,1.93.17,3.06,1.34,1.41-.27,2.55,2.31.68.37-1.78,3.12,0,1.16-1.05v-1.73l2.54-.85,9.32-.1.9-1.15,8.31.4,3.83-1,4.2,2,2.75.64,3,3,2.62,1.77,3.44,2.74,4.75,5.46,1,2.22,1.54.18.85,2.76-1.54,2.13,1,.08,1.12-.74-.36-2.38-.87-1.25-.17-2.52,1.74-3.15,3.26.08,2.13,1.8,5.79,2,5.93.73,2.07,2.29,2.92.33.58,1.53,3.95.11,1.08-1.12,0-1.7,1.82-1.65-.33-2.62L297,787.13l1.1-2.24,3.49-.8-.21-1.92,2.94.09,2.43,1.89,1,2.1,2-.18,1.19-1.52,4.76.36,1.39,1.16,1.48.41-.74-1.32,4.89-.33-.09-.74.18-.13-2.55.06-1.62-1.84h-1.39l-.09-.36c-.72-2.91-.71-2.91-.54-3.14l.15-.18,0-.06h-.49l.07-1.63,1.59-1.55a30.05,30.05,0,0,0-3.24-2.28l-.29-.18.88-3.45,1.94-.94a7.46,7.46,0,0,0-3.37-4.18,6.68,6.68,0,0,1-3.11-3.65l-.18-.57.6,0a18.47,18.47,0,0,0,7-1.94l.32-.18,3.69,4h1.18l3.58,3h3.19l1.77-5-1.8-1.72,0-5.69-1.22-4.25h1.13l.14-4-2-1.65,1.09-2.56,8.11-3.15V738h1.23l3.47-6.93-3.79-8.41,2.88-3.43-1.85-2.56h0v-3.52l-.92-.08-1.68-5.56-3.42-1,3.2-4.75-.84-6.55,1.33.72-1.24-2.76,2.57-12,2.88-3.39c0-3,0-7.58,0-8.17a.38.38,0,0,1,0-.12v-1.13l.8.8a.3.3,0,0,1,.06.07l.11.12c.36.37,1.38,1.35,2.36,2.29l5-2.55.56-2.11-5.58-1.61Z"/><polygon class="cls-4" points="155.56 714.4 155.42 714.53 155.42 717.34 155.83 717.16 155.56 714.4"/><path class="cls-4" d="M162.92,673.75h.56l.16-.33-.79,0Z"/><path class="cls-4" d="M278,674.63l-4.52-7.41L268,665.44c-.19-.09-.2-.09-6.77-7.66l-.12-.14.24-5.48-2-2.31V648l1.83-3.08-2-1.89,5.79-8.71,2.82-3,2,.61-1.2-1.78.85-4.21,2.56-1.23-4.39-.61-8.54-11.69,5.15-3.08,9.08-2.74.77-1.57-.6-1.14-8.34,3,1.52-2.78-1.05-3.81,5.29-3.49-1-.83,3.2-2,1.93-6,2,.07-.74-.79-4-5.52-1.65,1-2.44-2.43.18-.31a4.23,4.23,0,0,0,.21-.44,42.06,42.06,0,0,0,1.67-7.23l.1-.65v-.09l0-.3,1.51-.45,2.31-2.25,2,.17,2.23-.84.09-1,3.62-1.43.07,1.55,5.53,2.65,2.38,4.33a15.32,15.32,0,0,1,4.14-1.59l-.18-1.81,1-1.16v-1.94L289.65,564l-.94-4.54-1.88-3.94.2-.23.6-.7c-.67-.52-2.19-1.66-3.19-2.4l-.11-.08L283,548.67h3.22l1.45-1.58-1-1,.4-.35-4.45-5.44h-1.18l-.86,1.73-6.46-5.42-.2-2.87L265.55,528l-3,1.3-2.75-.34-.92,2.27-15.33-.81.75-1.72-1.68-2.53c-2.34.3-2.38.3-2.42.3-.51,0-.85-1.39-1-2.28l-.47.28.46,2.84,2.09,1.8,0,2.9-2.68,1.06.05-.74c0-.5.09-1.28.11-1.66a21.56,21.56,0,0,0-2.31-1l-2.66.17-4.94,2.21c-4.6.94-4.7.94-4.75.94s-.27,0-1.66-1l-5.34,2.22-.69,1.19-3.29,3.44-2.72.43-.15,2.8-3.19,5.36a48.38,48.38,0,0,1-4.2,2.73h0c-.19.05-2.15.75-3.45,1.22l-1.77,3.66-.35-.06-4.27-.79c-.9.51-6.26,3.74-9.95,6l-.68,2.94h-1.51L179.7,565l.94,1.3,1.07-1.17,4.82.87,3.18-2.68,2.17,3,.21,2.23L194,568l0-1.48,1.23-3.33,2.63-1,2.3-2.85,4.86,1.1.34-2.05,4.57,1.58,6,.85.81-1.38,9.34-.36-9.88,4.2.07,4.5L214.08,571l2.28,3.66,1.55,4.1,7.42-1.05-7.4,4.5-5.29,5.88,2.92,1.11L214,591.41l-.51,2.24,4.15,1.49h5.61l-8.36,3.79-2.45,3.9-1.34,4.75-2.54,6.32L205,616.52l-2.55,3.65-8.6,3.73-3.82-.46-4.71,3.44L183.91,629l-4.74.9,0-1.45-1.84.52-2.85-1.24-2,.47-.06,2.49-1.93-1.3-2.14.21-1.69,3.43-2.34.46-2.42,1,.4,2.78-4-1-.69-1.46-.75,1.15-.17,0c-.8.23-1.7.5-1.82.55s-.13.1-2.85,0l-1,0,1.34-1.42-.3,0-3-1.68-1.17.93-.77,4.19-2.36.47-2,2.14-.76-1.2-2.06-.12c-.21.32-.66,1-1.05,1.69l-.14.23h-3.93l-2.45.94-.14,2.77.75-.4h5.44l.25,1.4,4.21,1.25-.21,6.64-.07.11c-.56.86-1.19,1.83-1.26,1.95-.08.3-.08.3-4.67.78-.92,1.73-1,1.77-1.09,1.85-.3.2-.47.15-1.37-.63l-.39.68,2.29,2.61,0,2.17,1,.09v-2.45l3.17-.72.57-1.47,2.08-.28-.61,2.65.55.54,3.06-.16.27,1.39,1.8-.5,1.65-1.9L151.5,664l0,1.67-1.17-.14.51.63-.63,2.84-.59-.48c-1.75-1.42-4.3-3.49-5.09-4.11-.26.19-.69.53-1.06.83l-.23.19L141,664.29l-.57.62,2.16,2.59-1,2.72,2.39,2.24,2.81-.14,2.11,1.64,3.2-3.59h3.69l.42,1.42,2.56,0v-1.37l.2-.14c.24-.17.27-.19,3.09.88A21.85,21.85,0,0,1,164.5,668L163,666.42l3-1.44,6.11-.22,7.36.85c-.2-.57-.39-1.11-.5-1.4h-.17v-.47c0-.19,0-.3.47-.43v0h.13c.58-.14,1.73-.33,4-.69l.41-.06,1,3.33,2,3.45-2,.58,4,4.26a3.76,3.76,0,0,0,1.95-.51l.24-.14.24.14s1.06.64,2.24,1.33a12.15,12.15,0,0,0,3.06,1l1-.53.37-2.25,3.66,1-2.09,2.43.64,2.57-1-.55c-.57-.33-1.22-.7-1.46-.82l-9.06,1-3.51,1.32.67,2.19L185,684l2.29,2,5.11.39,3.2-2.71.62,2.6,3.31.22,1.69-.74c0-.17,0-.46.08-1,.1-1.6,3.07-2.16,3.86-2.22.47,0,.73-1,.78-1.41l.93,0,.05,2,2.13-.89,3-2.94-.05,5.78,2.06,1.64-1.27,1.54,3,4-.89,2.39,1.52.48,1.16,2.58,1.86-.71,2.3,1.28.6,4,3.88,4,4.32,2.17,2.17-1.79,2.23,2.33,6,1.17.29-1.26,5,.14-.7-3.7-.93-.32.13-2.29,4-.35.75-2.44,2.08,1.7,7.25-3.62,9.82.44,1.51-1.17,4.36.25,4.05-4.55,0-.1h-.93l0-1.72.1-.1h-.1l0-1.77.86-.87.09-2.06h.06l-.13-.1.1-2.48,1.9-1.78-.1-3.68,1.73-2.36-1.79-.81-.51-1.6Z"/><path class="cls-4" d="M197,519.55l-1.58,1.75-.88-2.77-1.22-.16-.7,2.72,1.67.06.11.29a15.37,15.37,0,0,0,1.64,3.14c.63-3.91.66-3.92.91-4.06l.46-.5Z"/><path class="cls-4" d="M203.43,532.86l1.49,3.63,2.87,1.68,2.62-1,5-3.77,2.2-1.81,1.51-.21c1.09-1.69,1.11-1.69,1.4-1.69l2.74-.24,4.31-4.08-1-1.05-3.75-.75-1.92,1.1-3.05-.28.3-3.82L217,519l-2.93-.89,1.68-4.46-3.29-.66-3.45-2.08-2.69,1-5.81-.18-.44.87h1.73L199,517.19l2.4,3.25-2.8,1.36v1.88l3.17,2.7-.47,4.38-.94.76,1.5,1.45Z"/><path class="cls-4" d="M301.72,566.91v1.52l1.5,2,3.51-.78,2.64,1.86c.84-.61,3.4-2.35,5.33-2.69l2.4-5,2.28-2.36h3.83l2.09-1.3,3.32-3.5,1.61-.58,1.08-3.25,2.22,2.2,2.45-.31.06,0,1.83-.59.24-.24.24-.26.1-.11.32-.34.12-.13.2-.22.23-.25v-4.95l.29-1.54-.05-.21.08-.61.26-1.55.11-.19.12-.17.17-.92v-.73l0-.08,0,0-.06-.15.11-.82v-1.46l-1.14-2,2.44-3.29h-.44v-.46c0-.33,0-.7,0-1l-.19,0-.08-.25h-2.82l4.73-1.79.06-.07v-.85l.59-.52.15-1.43,0-.26.17-.07L344,527l0,0,.08,0,.22-.26.39-1.59,3.64-2.81-1.23-1.51-1.34-3a18.16,18.16,0,0,0-2.57-3.2l-.21-.14,0-5.46h-3.61l-2-1.1,0-.32s.3-2.65-1-4.17l-.37-.43,3.33-1.95c.18-1.2.71-4.14,1.8-4.71.91-.5,3.13-1.54,3.71-1.81l.81-1.53-2.65-4.33,0-2-3.66-2.49.07-2.17-1.72-2.3h-2.88l-3.58-7.52-5.74-.78.12-3.26-4-6.57,7-7.74,8-1.77-1-9.23,4.78-1.86c.57-4.51.69-5.36,1-5.52l.06,0h.22l6.11-.84.81-.61.1-4.53-.93-1.73-5.57-6.11-.11-4.42,1.78-.73L341,411.89l2.13-3.15,1.75-5.83-3.49-4.29c-8,1.14-8,1.14-8.16,1.07s-.21-.06-2-3.89l0-.19,0-4.16,2.61-6.07.95-6,4.66-.76.82-4c-4.62-1.52-5.3-1.76-5.41-2a.24.24,0,0,1,0-.05c-.23-.59-2.23-5.31-3.67-8.73l-8.5,4.7-4.93,3.45-7.12.79-1.64,5.56.48,0,1.67,3.34-3.81-.2-1.33.78,5,.59,0,2.25-6.3-.14L296,381.13l-.71,1.6,6.15,1.49-1.64,1.94-8.22-.63-3.4,3-2.54,7.61L278.4,403l.1,2.21-2.25.66.32,3.53-2.16,6-1.17-.76-.56,2.22-2.12.46a9.39,9.39,0,0,0,0,1.36c.07.8,1.57,2.18,2.37,2.92l.1.09a12.44,12.44,0,0,1,2.76,4.08,39.11,39.11,0,0,1,1.63,5.72l4.11,3.72-3,4.75,1,4.59.49,2.8,2.3,2.68,2.24.1.91-.49-.1-2.37,3.65-2,0,5-3.86,7.12,4.15,2.48,6.59-6.68.88-4.23,1.52-3.81,2.37,1-1.27,3.89-.34,3.84,1.52,2.16,4.82-2.72,4.6-5.93,1.81,1.78v3.07l-5.32,3.16,1,2.17,3.63,2.08-.4.43c-1.19,1.28-1.69,1.82-1.95,2s-.52,1.23-.87,2.1l-.09.23-4.75,1-1.44,3.09,3.1,3.24-2.79,5.45-2.09-.34L297,479.2l.52,5.85-3.86-1.4L295,482l-1-1.1.56-2.43-.83-.64-1.09.7L292,481.7l0,3.32-1.55.89.05,4.08-.82.89.13,2.09,1.94.46.45,1.87,2.54.05L296,494l4.38,2.42-2.55,3-1.66-1.75-2.14,4.55-1.28-1.93-2.23,2.57-4.64,4.85-1.21,6.1,1.15,1.83,0,4.42,1.79,1.48.5,5.12,7.32,7.13,2.55.13,1-1.94h4.12l1.86,1.64-7.81,4.25-5-.18L288.78,535l-2.86-5.8.06-2.8-.84-2.33-.84-1.11-2.1,1.31-3.13.57-2.13,3.4,3.66,6-.71,1.5-.17,2.19,2.37,1.12-.18.37H283l3.88,4.74.16-.66,1.91,1.86-1,.83.91.9-2.34,2.55h-2.26l.75,1.92c3.66,2.72,3.66,2.72,3.66,3v.22l-.16.14-.66.77,1.68,3.55.87,4.22,5.19,3.4,1.73-1,2.67,1.21Z"/><polygon class="cls-4" points="283.69 455.24 283.31 455.24 282.96 457.58 285.01 461.81 285.2 461.83 283.04 457.63 283.69 455.24"/><path class="cls-4" d="M228.2,430.09l-.7-3.56,2.63-6.06-7.67,1.47-9.19,10.36-4.79,1.9-3,5.42-1,3.53L201,447.58l4.32-1.1,2.94,1.31,1.41,2.15.62-2.47,8.41-2.87c1-2.29,1.18-2.45,1.46-2.46s3-1.1,4.73-1.77c-.1-2.9,0-3,.14-3.14l.17-.14c.6-.54,3.49-3.39,5.52-5.41Z"/><path class="cls-4" d="M360.24,660.75h-6.4a7.34,7.34,0,0,1-1.8,2.62l-1,3.87h0l-.66,2.5-6,3-.24-.23-.62-.59-1.33-1.27c0,.88,0,2.3,0,4.63,0,.78,0,1.65,0,2.64v.17l-3,3.47L336.77,693l2.26,5-2.17-1.17.65,5.1-2.68,4,2.68.8,1.65,5.43,1.15.1,0,4.07,2.1,2.91-3,3.53,3.74,8.28-3.93,7.84h-2.75v-.84L330,740.61l-.66,1.55,1.82,1.5-.19,5.41h-.79l.91,3.25,0,5.36,1.95,1.86-2.19,6.19h-4.19l-3.58-3h-1.25L318.4,759a19.53,19.53,0,0,1-6.45,1.82,5.52,5.52,0,0,0,2.39,2.54,7.9,7.9,0,0,1,3.94,5.27l0,.31-2.14,1-.6,2.37A20.39,20.39,0,0,1,319,775l.27.33-2,1.92v.28h1.22l-.44.72c-.27.44-.45.72-.59.9.08.37.28,1.25.49,2.12h1.08l1.61,1.83,5.15-.12-2.2,1.57,0,.24,1.65-.11,4.34,3.84,2.17-2.13.08-2.43,3,.68,9.52-1.65,1.23-2.13L337.92,772l-.38-3,4.3,3.35c.49-.86,1-1.71,1.1-2V770h.47c.16,0,.25,0,.45.47h0s0,0,0,0c.25.6.65,1.91,1.54,4.76l2.21.1,1.12,4,6.63,6.4.66-1,2.1-.1,1.29,1.35,1.75-.94.21-2.79,2.11-2.41,2.91.82,3.58-.34,0,3,.5-.07.3-1.32,2.84-1.29.6,4.71-2.58.92v2.09l2.24,3.09,2.39,1.41,0-2.72L378,788l1.51,1,.09-.9,5.64.53,8.11-1.15,2.33,1.1,6.27,0,2.28-1.09,6.43-.37.12.07a14.87,14.87,0,0,1,1.45.88c.21.08.95.27,1.56.42l6.38,2.29,7.72,3.58,1.23,1.94,5.3,2.25,6.17-1.94,1.16-2.25,3.15-1.69,4.39-1.09,5.27-.24,1.62-1.1,2.81.7,4.18-1.33,3.55-3.48,2.08-3.55,5.64,3.13,6.33,1.39-.12-4.62,2.41-2.65-.19-2.16,5.29-2.34.73-1.38,6.82.27L497.1,772l5.26-.39,1.31-1.58s3.52-2.49,4.6-3.41c.84-.71,1-2.84,1.12-4.26l0-.56c.11-1.18,0-4.58-.13-6.11l-.73.41-3-.27,0-4.58,3.28,1.56,4-1.94,0-3.86-2.2-.91c-3.25.87-3.3.87-3.38.87l-4.18.61-.41.06-.52-1.93-9.83.71c-2.24,1.23-2.56,1.4-2.78,1.31-.39,0-1.88.22-3.21.41L480,750l.28-.84.16-.5c-.58-.21-1.84-.64-3-1l-.13,0-1.91-2.25-3,.51.53-2.64-.94-2.94h-1.37L469,743.42l-3.84,0-2.86-2.87L458.41,742l1.76-3.69,7.1-2,3.18-.34-4.63-2.73-7.72.75-.71,1.92-6.37-.34-2.89-2.78-1.89.74-2-1.83-.81.43-.26,1.45-1.74-.07v1.07l-1.13-.2-.65.65.07,4.8-1.07-1.15.09,3-1.45.95h-.69l-1.71,4.63h-3.35l-.14-.18c-2.82-3.62-2.82-3.62-2.82-3.82v-.81l-1.06-.62-.85,1.75-1.94-.07-.76,1.7-2.44,1.18-2.18-1.25V742.2l-.87-.53.07-1.07-.6.06-2.47,1.52.45-2.75.65-.91-.46-.51-1.42.18V737l-.82.05.08.86-1.41,1.11-.2,1.19-1.59,1.5L409,740.35l.7-1.16.15-.76,1.25-1,.06-1.14.71-.6-.45-.42-1.52.12.15-1.37-.53-.58-2.35.09.14-2c-.58.07-.63.05-.74,0s-.13,0-.74-.93l-1.08.14-1.16-1.24.09-1.58H403l-2.27-1.13,1.16-3.18,1.1-1-.07-3.9h1l0-2.24-1.13-2.24-.88-.24.08-3.52h-1.86l3.4-3.28-.41-.49h-2.91l-1-1.16L399,703.3l.69-.57-1.5-.65-.05-2.64h-.54l-2.13-2-.07-1.36-4.56-6.29,4.54-1.71,1.31,3.48,1,1.18.83-.83,2.71,1.83,1.41-1.33-.66-2.57-5.19-5-1.51,1.51.1-3.44.87-.6,0-1,1.87-2.47,0-3.13,1.82-3.27-.91-1.18.3-.29a25.06,25.06,0,0,0,3.26-4.9c.23-.4.3-.54.58-.54h.13l.35,0-.77-5.81-1.73-1.69h-2.52l-3.26.84-1.92,2-.86,0c-.05.76-.09.87-.3,1a28.27,28.27,0,0,1-3.15.8l-.05,2.45,2.07,3.07-3.15,1.8h0v1l-2.43,1.39-1.9-5.07-3.84-.71.06.77-7.46,1.8,0,1.06,2-.18-6.64,5.36.14-1.69-4.61-.72.13-5.49-1,.06-.06-1.82.91-2.21-1.41-1.55,3.84-.76-3-5.42-.62.5Z"/><path class="cls-4" d="M351.65,797l.15-1.05,4.67,0-1.61-4.3.2-1.54c-5.17.58-5.18.58-5.38.39l-.16-.18c-.17-.18-.55-.55-.88-.87l-.2-.19.5-2-.8-.8-.56,1,.09,3.08-1.88,1.76-.74-1.7.62-2.29v-2.54h-.46l-1.47,2.25-2,.56L340.56,791l-3.39-1.38-3.9,1.12-.94-.8-2.13,2.88,1.57-.4.11,0a11,11,0,0,1,2.31.61l7.75,7.68.77-1,1.11,3.08.74.17,6.82-1.43.83-3.07Z"/><polygon class="cls-4" points="363.82 785.06 365.41 785.74 367.38 785.63 366.21 782.93 363.82 785.06"/><polygon class="cls-4" points="476.65 737.75 474.47 737.27 473.72 738.85 475.05 741.87 479.16 744.38 483.82 744.2 476.98 739.6 476.65 737.75"/><path class="cls-4" d="M339.61,353.57l2-1.1,3.24-3.29h7.43V346.5l10-5.6-6.5-16.53,3.32-1.29,2.55,1,1.73-2.56,4.86-4.21,3.93-3.52,2.26-3-.07-1.56-1.17-.85,0-3-2.28-1.91-.29-2.61-2.77-1.91-1.51.34-3.5-.05-1.59-2.67-1.22-.14-8.08-8.14-6.93-5.66-6.59-1L328,290.26l-5.12-.19-3-2.45-1.26-1.9-4.27.15-5.84-2.56-3.77-.3-4.15-2.33L292.29,279l-3.2-7.21,3.2,0,12.61,8.2,2.66.4.75-1.74,4.21.17,2.18-2.21,2.47,1.81,2.53-.62.94-3.63,2.75-2.65,2.29,0,3.15-3.25,3.62-2.34,4.39,3.06,5.39,0a18.21,18.21,0,0,1,6.28-2l3.22-2.84-.39-2.77-2.51-2.78L346,257.31,343.57,247l-4.84-1.88-1.08,1.37-.2,0a36.45,36.45,0,0,0-9,2,35.14,35.14,0,0,0-5.16,3l-.1.07H323l-3.7.32h-.22l-.14-.17c-.15-.18-.2-.23.15-2.16l0-.2.16-.11c.23-.15,5.53-3.72,7.18-4.68s5.16-2.5,5.3-2.57L332,242l4.74,1.37,2.62-1.71,2,1.34,4.51-1.19,2.83,1.87,10-6.71.78-1.07,3.57-3.11.47-5.14,3.06-1.12a29,29,0,0,1,2.43-6.58l.06-.11,9.34-6.25,2.87-3.58c1.75-4.76,4.38-11.94,4.49-12.41,0-.25,0-.27,3-2.14l3-5,1.53-9.8,8.4-11,1.22-3,2-.61,4.37-3.62,1.83-2.66-.31-2.18,1.51-1.7-1.19-7.66-7-11.66L398.62,135l-2.1,2-4,.27-2.7-2-2.18,1.32-10.14-.82-1.14-2-4.13-1.39-2,1.06-.23-.36c-.24-.37-.38-.59-.47-.74l-4-1.54-2.13.9L362,129.07l-2.38-.16-1.81,2.67-2.6-.89L353.64,132l-5-1.84-10-6.54-4.26.85-4,.32-5.87,5.74-4.3-4c-4,2.84-4.1,2.85-4.19,2.88s-.11,0-10.94,1.13l-.22,0-1.37-1.39-2.41,1,.15,2.58-7.59,5.7-4.86-.74-8.64-3.34,7.62-.19,1.87,1.34,1.24-1.27-.78-3.09,3.82.66,1-1.78,3-.23-.07-2.1,4-3.3,1.73-1.66-2.17-1.06-7.66-.15-11.81,8.2,2.66-6.1,4.37-2.84,6.44-3.27,2,1.66,2.61-1.92,6.76-2.16-2.26,3.77.73,1.06,1.9.06,5.81-6,3.56-5.86-1.23-.37-3.9,3-.19-.66-.75-2.54-4.88,1.57-.22.07L299,104.8l-6.38-1.48-4.31-7.66,2.09-.83,4.22,6.47,5.17,1,3,2.19,5.6-4.19-3.07-5.19,10.28-1.6,12.26-7.55,2.41-3.23,3.14,0,5.43-4,7.28-7.66,3,.74c0-.49.1-1.15.1-1.25v-.2l.16-.15c.19-.16.25-.22,3.09.19L356,68.71c.3-.3,1.72-1.77,2.32-2.47a5.89,5.89,0,0,1,2.29-1.31l.94-3.6,2.61-1.79.1-3-1.28-1L361.91,50l.3-.17s1-.55,2.57-1.68c1.13-.81,2.46-4.57,3-6.37L361,38.67,360.76,37l-9.33-.55.68,2,1.78,1.32-2.19,3.79L342.78,40l.88-1.13-2.22-.36L339,39.78,332,43l-11-3.71-.36-1.8-1.07.22v1.89l-2.85,1.11L316.19,39l-2.42-.7-.92,2.25-2.66-.07L308.47,44l-1.74-3.93-4.06,0c-2.2,3.21-2.73,4-3,4.16h0c-.24.14-2.78,2-4.33,3.19l-.7.52-.14-2.42,3.07-2.58L298.87,38l-2.09-2.69-3.5-.79-5.75,7.12-4.63,2.59-.67-2.28,5.37-4.87c0-.51,0-1.85,0-2.4-.37-.22-1.31-.7-2.13-1.1l-.23-.11L284.85,30l-.88.35-1.41,7.17L280,37.4l-.06-3.16,1.45-2.68-2.21-3.41-2.8,0L275,26.56l-1.21-.12-1.88,3.87-4.89,4.55-1.19,2.65,5,3.66-1,2.88-1.78-1.68-1.34.1.11,2.51-1.45,1.56-1.61-1.85-2.05,2.44-1.67,3.48,1.72,5c2,1.43,6.33,5,6.52,5.19l.84.71-3.4.37-4.24-3.21-1.58,1.17L257,58.86l-6.24.44-.26-1.72L249,56.17l-1,2,1.14,1,.87,5.52,2.83,2.43-2.57,1.25.25,2.27-1.82,4-3.31-1.56-2.44-2.92-1.24,1.05.67,3.93,1.77.32L246.9,79l-.11,3,1.95.84,3.4,3.52-1.82,1.21,1.77,1.66,1.78,3.17h-2.48l-3.23-3.34-1.69-.22-3.58-2.64L241.37,86l-.22,1.2c.62.26,2.14.85,3.22,1.27l.28.11.13,1.84,2.38,2.74.51,2.47-2.94-1.05-1.82-3L239,89.28l-2.75,2.8-3.51-1.35.31-3.68-1.72-1.94H230c-.65,1.41-.71,1.46-.8,1.53l-1.56,1,.45,1.38.21,1.55,2.86,1.26-1.11,4.73-3,2-2-4.07-.52-5.67h-4.87l-.74,2.08.48,4.33-1.66,1.94,1.89,3,2.91-.17.84,3.69-.22.18c-1.57,1.33-1.66,1.3-1.92,1.23s-.2,0-1-.95l-4.65,3.6,0,.81,2-.23,1.42,4.07-.64.71,1.82,2.95,1.43,1.26,3.35.27,3.32,1.42-2.9,2-3-.79-3,2.42-.79-4.3-2.7-.24-.53-2.23-2.85-.83-3.07,8.2,1.36,3.25-1.12,5.27.87,3.22,2.82,0,2.68-.88,4.91-4.79-.12,5.51,1.07,2.7-4.91.17-4.6,3.31v1.14h4.25l2.07,1.48h3.73l3.12,3.33C227,150,227,150.08,227,150.21v.2l-.14.14c-.15.15-.21.2-2.31.18h-.24l-3.23-4.49-5.3,1.45-.07,2.94-3.22,1.65-.09,1.9c.78.17,2.14.48,2.27.52a31.17,31.17,0,0,1,3.22,2.24l.14.1,0,.16c.93,3.52.93,3.57.93,3.65v.2l-.14.14c-.16.15-.21.21-2.51.18l-.18,0-7.13-3-3.67,4.19,1.49,1.9,2.91.58.51,3.15,1.71,1.1,4.08.05,0,.44s.05,1.3.05,1.38c0,.52,0,.52-6,.74h-.25L206.36,167h-5.12l-.56,3.11-2.43,3.06.16,2.39h-3.27l-.64.74c.45.24,1.17.6,1.84.93l8.32-.61.5,2.05-3,1.53,2.35,2.13-6.34,1-2.59,1.15-.75,2.45,1.29,2.51-1.49,1.22-4.34-3.89,0,1.13-10.83-1.7-2.63,2.2.63,3.58,2.29,1.07,4-1.5.77,2.08,4.16.62,1.24,1.3,3.78-.08.14.17.51.59.4-.56.15-.21,1.17.06.62-.88.83-.12,0-.76,3-.05.41.83,1.22-.08.15.25c.83,1.42,1.22,2.11,1.41,2.48l3.73.07,3.21,2-5.55.06-3.48-1.16-2.49-1.73-.7-.08-1.17,1.25h-1.33l-2.2.66-8.11.06c0,.44,0,1.08,0,1.31.16.36.91,1.93,1.38,2.92l0,.15.34,2.89,3.58,3.43,2.55.22,4.43,2.76.41,2.18,1.9.33,1-1.48,3.81-1,3.16-3.16,1.39-3.23,2.11,0,2.47-3.07,1.45,1.11,4.92-3.31,4.77-4,1.38-2.59,2.14-.78,3-3.56,2,1.21-2.48,3.58-5.41,5.08.05.74,2.06-.57.91,3.54-.56,0-6.58.48-1,.63.8,1.09-5.92,5.15-1.39,2.7,1.4,2-5.85,2.4,0,.7,1.66-.21,1.9,4.66-3.47-.49-3.34,2.31-.68-.75-2.41,1.58.77,1.68-.15,3.38-2.25.59-2.12,4.07-1-2.86-1.51,1.17-.05,2.87-2.46,2.38.07,3.38.49.41.35-2,1-2.32,3.08-1.35,1.59.87,2.45-.66,1,1.86-3.49,1.8.49,1.69-5.28,4.26L195.24,249l.48.09,1.15-1.72c2.85-2.25,2.85-2.25,3.07-2.25s.27.05,1,.69l.37.33.26.07v.36c0,.22,0,.25-2.4,3.07l-.42,2.73-2,.78-5.1,5.27-2.05,1.87L187,263.36l.47,1.29,2.15-1.65,2.83-4.33,3.1-1.45.09,2.87-2.12.89-1,3-4.83,4.35v1l1.2.06,2.52-2.86L193,268l-1.9,2.91-3.55,3.78-.79,2.86,2.51,1.71-1.19,2,.7,1.19,4.38-2.48,4.33-4.31,1.42,2.07-3.64,4.75-.1,0-5.44,2.52c-.37.29-3.56,2.95-5.76,4.78l-1,5.7-4,4.76-1.27,12.84-2.86.08L171.52,315l-1.46,6.65,4.29,2.51,6,.1,4-4.4-1.4-5.49,5.74-6.87,1.43-4.64,1.77-.57.26-2.68,5.5-11.79,2.14-2.36,3,.07,1.2-3.69L200.3,274,200,261.63l2.28-.56,1.87,1.68,2.57-1.84,7.21-8.4,2.08-.49,1.56-2.11,8.67-6.87.59,1.41,5.61-1.9-.82,2.6-5.25,3-3.82,4.41-4.25.84L207,265.12l-.89,4.11.21,8.2,1.5,1.39,1.77.48.53-5.46,1.06-1.09.44-3.95,2.13-.32.39,2.55,2.17,2.13,1.29,2,.37-.35-.57-5.74,2.48-.24,1,7.2-1,2.23,3.3,1.2,2-4.56,2.41-2.64-.7-2.32,2.18-.75.46-3.89,1.28-3.28,1.95,2.44-.93,3.08,1,2.29,2.48-.59-1.61-2.3-.34-5.08h2.16l1.11,5.08,2.6,2.72L240,273l8.3,4.48,3,.43,2.92,5.79h-1.86l-2.85-3.23L239,276.72l-5.72-3.86-3.7,5.27H228l.41,8.62-.79,4.9-3.26,4.51,2.64,6.09,2.85.85,5,6.91-2,1.77.81.66,1,6.87-8.5,5.48-5.83,10.07-2.22,5.72-5.27,3L204,355.4c0,.44.09,1.57.09,1.63l1,4.28,0,.1-1.1,5.36-2,1.22-1-3.58.35-6.19-1.51-.51-3.3,1.06-2,6.77,2.78,7.84,3.6,5.19L203.2,385l-1.33,3,2,4.85,1.52,0-.33-8.55.9-8.34,8-3.21,2.24,5.53,14.05,15.7,1.9,1,2.27-1.19,0-5,2.64-4.13-.63-.64-3.76-9,7.44,4.46s3.45,3.65,4.53,4.61a6.52,6.52,0,0,1,1.65,2.79l2.63,1.93,3.48-.12,4.54,2.27,4.51-2.21,1.54-1.56,1.83-.25,1.61-7,2.45,4.3,5.14-2.41,4.72,1.18,1.65-8.54,15.69,3.1,11.85.77,1.88-6.36,7.5-.83,4.78-3.34,8.93-4.94Z"/><polygon class="cls-4" points="145.65 318.75 148.34 322.67 149.76 319.35 145.65 318.75"/><polygon class="cls-4" points="244.88 81.45 244.68 80.94 244.2 80.9 244.39 81.59 244.88 81.45"/><path class="cls-4" d="M240.51,77.48l.24.74,1.54.32,0-1Z"/><polygon class="cls-4" points="254.53 56.39 254.72 56.64 254.91 56.3 253.66 55.42 253.66 55.42 253.4 55.67 254.53 56.39"/><polygon class="cls-4" points="222.49 292.92 221.62 292.92 221.57 293.87 222.23 293.75 222.49 292.92"/><polygon class="cls-4" points="223.94 288.48 222.99 289.97 223.19 290.97 223.96 290.97 225.19 289.63 223.94 288.48"/><polygon class="cls-4" points="206.91 291.94 204.24 290.88 203.14 291.99 199.74 293.29 199.53 295.16 197.71 296.69 197.71 301.73 198.95 303.6 198 305.86 197.96 308.67 198.79 309.24 198.96 310.98 200.61 315.02 203.79 316.73 209.43 316.73 209.23 314.16 210.81 312.18 210.33 309.03 211.77 307.3 211.2 305.79 208.57 304.77 209.62 295.65 206.91 293.08 206.91 291.94"/><polygon class="cls-4" points="212.09 285.28 212.06 285.57 212.24 285.59 212.09 285.28"/><path class="cls-4" d="M214.5,273.91l-1.08-.59-1.5,1.27.09,1.18.41.46.73,2.87,1.92-.47-.66,6.84.6.67,1.92.15-.51,2.62,1.13,2.21,1.16.89.33-.81-1.63-.87.15-.39c1.26-3.18,1.82-4.6,2.15-5.19,0-.21,0-1.71-.11-3.21l-1.6.29-1.06-2.18.67-1.73-2.19-2Z"/><polygon class="cls-4" points="180.08 287.9 181.88 285.43 181.11 285.25 180.44 286.71 179.4 287.82 179.38 289.89 178.51 291.08 178.51 291.57 180.28 290.59 181.23 289 180.08 287.9"/><path class="cls-4" d="M163.49,275.86l.12-5.14.73-.67-.88-5.43.88-1.16-2.86-1-9,8.7.32-5.79-2.15.87-3.86-.18L144.5,271l.7,1.18-.23,1.74-1.56,1-.52,1.5L140.68,280l.12.94h1.43l3.83-2.13,2.11-2.25.34-2.1,3.13-2.65L155,276.1l-3.68,2.11-.8,1.07c.49.16,1.26.38,1.94.56l.41.11-1.06,6.2-1.21-.07.12,1.54-2.5,2.94v.64l1,.05,1.15,1,2.1-1.27,1.21-2.52,2.84-.25.11,1.08,2.67-.18,2.31-1.27.2-2.67,1.85,1.8,1.81-1.22-.16-1.21-.94-1.15.84-1.41-.54-.91Z"/><path class="cls-4" d="M186.83,254.31l.28-2,1.91-.39,1-1.94,1.47-.9-.14-1.81-1.22-.1-1.25,1.39-.68-.7-1.87,2.24-6.74,2.51-1.41,2-1.71-.26-.69,1.45-3,2.75,2.24,1.7,2.07-1.2,1.81.87-.57,2-2.27.08-1.26.73-.24-.16c-.58-.38-.94-.62-1.16-.79-.72.23-3.06,1.08-4.61,1.64l-2.12,2.06-.2,1.78-.61.7.53,1.66-.9,1.21.1,2,1.67,1.78,3,.85V276l2-1.93-.36-1.62,2.73-3.51L176,269c.08-.42.18-1,.2-1.15l0-.24.24-.15c.13-.07.32-.17,1.1.19l2.5-6.47h.33l1,0c0-.26,0-.62,0-.93v-.17l1.85-2.3,1.2-.17Z"/><polygon class="cls-4" points="161.44 253.19 161.43 253.22 161.46 253.19 161.44 253.19"/><polygon class="cls-4" points="163.77 251.44 163.62 249.47 167.53 245.41 167.47 244.2 160.64 249.53 160.46 250.7 162.59 251.31 163.77 251.44"/><polygon class="cls-4" points="191.36 243.58 190.17 243.36 189.98 244.06 191.02 244.85 192.4 244.11 193.21 244.11 193.32 242.62 192.72 242.37 191.36 243.58"/><polygon class="cls-4" points="189.6 237.02 190.51 237.02 190.63 236.55 189.92 236.55 189.6 237.02"/><polygon class="cls-4" points="212.41 211.57 211.48 211.72 211.24 212.53 212.41 212.19 212.41 211.57"/><polygon class="cls-4" points="207.15 216.62 210.21 213.46 205.97 216.47 204.5 216.64 203.68 218.34 204.04 218.62 205.76 216.56 207.15 216.62"/><path class="cls-4" d="M157.08,223.38l.3.05-.14-.26Z"/><path class="cls-4" d="M181.9,200.93,180.6,199l1.2-.77-2-2.21-4.09-.2-.65,1.27L175,200l-2.38.18-.77-1.83-.95.78-1.87-.67.07,1.24.9.28c.47.15.37.65.19,1.55l0,.19-2.64,1.83-.09,1.3,5.58.6.8,2.06,1.74.27.08,2.58c1,.52,2.47,1.23,3.06,1.51.22-.26.6-.73.92-1.14l.18-.22,3.68.71-.36,2.58-2.49.22-3,2.14-6.92,4.5,2.38,1.34,3.92-1.32,1.45.5,2.5-1.51.49,2.28L179,224.18l-3,.14-.93,1.14-2.66-.16-4.88-1.16v2.28l-3.26-2.07-.36-1.87c-1.18-.09-1.78-.16-2.1-.22a10.82,10.82,0,0,0-.53,1L161,226l-1.45.11-.27.53,1.34.51,1.38-.69,1.34,1.62-.65.68c.91.3,1.8.58,2.21.69l1.61-2.14.38-.5.77,1,1-.83,2.24,2.07,1-1,4-.7-.19,1.69.83.06,3.38-2,2.32.48,4.39-3.79-.58,4.93,1,.67,7.14-2.64-.54-.75-2.09-.33.22-.55c.33-.82.7-1.73.78-2v-.15l.17-.15c.14-.12.21-.18,1.08-.06,0-.71.06-1.9.06-2v-.31l.29-.12c.34-.14.35-.12,1.89,1.44l.2.21-.59,1.77,1.83.12,0-1.76,1.24-.51-.81-3.52-13-8.27-.31-5.07-1.61-4Z"/><path class="cls-4" d="M169.22,209.62l.06.3c.09.41.19.86.26,1.16l1.59-.23.43-.06.33,1.44,1.77-.26-3.77-2.84-1.08.4.11,0Z"/><polygon class="cls-4" points="145.94 201.06 146.08 200.75 144.69 200.48 145.94 201.06"/><polygon class="cls-4" points="132.73 204.7 135.38 204.98 135.06 206.55 136.02 206.55 136.97 203.33 141.56 202.75 144.12 200.37 138.75 199.34 133.96 199.34 133.38 199.77 132.73 204.7"/><polygon class="cls-4" points="154.08 192.23 153.63 194.29 151.17 195.46 149.21 195.85 148.9 196.57 149.58 197.24 152.23 196.19 154.04 197.04 155.61 196.28 159.37 194.94 162.28 188.83 161.36 188.83 155.98 192.45 154.08 192.23"/><polygon class="cls-4" points="177.35 178.39 178.12 178.33 178.21 178.08 177.12 178.04 177.35 178.39"/><polygon class="cls-4" points="183.16 170.98 181.38 172.18 183.67 174.97 184.25 174.24 183.16 170.98"/><polygon class="cls-4" points="167.95 153.74 166.26 154.32 168.4 154.64 168.69 154.5 167.95 153.74"/><polygon class="cls-4" points="179.42 165.16 180.18 162.93 178.86 160.81 180.01 160.22 177.62 156.69 175.31 157.26 174.33 158.54 171.08 160 171.5 161.91 173.04 162.53 173.53 165.34 174.91 166.81 176.75 166.97 177.42 166.18 179.42 165.16"/><path class="cls-4" d="M212.34,144.13l-8.93.9-4.89-4.3.48-.12-1.86-1.3-2.15.35.43-2.33-4.21-2.41,2.7-.69-.46-2,.67-2.84-1.59-2.82-1.82-.21,1.43-2.22,1.31.32,1.71-6.73,2.2-3.74v-5l-3.71-8.85-2.12-2.5-1.38.4-.38-.32-.24,1.75-3,1.1-.84,3.29,1.13.67-1.27,2.31,1.91-.09-2.6,2.59.24,1.65,1.33,1.72-.35,1.25,1,1.46.19,1.87-1.52,1.34-2.16-4.71-1.87,1.7-.17-1.68-.56.75-2.08-.11.13-2.17-2-1.27v-3.6l-2-3.81-.81-.5-.83,1.26.4,2.29-1.68.79-.11.64,2.75.87v2.86l-1.18.81-1.42,3,1.71,2.94-4.44-1.19,0-.31a33.18,33.18,0,0,0-1.32-5.27c-.48,1.13-1.21,2.92-1.73,4.18l-.25.61-1.49-1.32-.49,1.48L162.55,118l.12,1.08,2,1.61-.15,1.89,5.92,5.47h1.16l.43-2.1-.28-3,2.78-.44.06.48q.13,1.06.21,1.68c.38-.31.88-.73,1.34-1.13l.25-.21,1.76,1-.78,2.57-.6.2.8.78,2.35-.08.45,1.83,2.75,2.45-1.39,1.61-3.1-3-2.87,2.55.17,3.23,1.73,1.45.1,1.53,2-.25-1.54,2.72.85,1.77,2.79-.4L180.12,147l3.11-.15,3-1.15,1,.76,1.88-1.78,1.78,1.57,0,.26c-.13.67-.21,1.06-.29,1.3.16.26.51.79.81,1.24l.18.26-1.36,2,.36.75,1.09-.06c1.32-2.29,3.18-5.55,3.49-6.12v-.13l.2-.14c.21-.15.26-.18,1.78.34l.31.11,0,3.32,3.18.12,0,2.55-1.9.21-.21,1.43-2-.14-.95.67v2.06l-1.25.29.56,1.66-1.88.85-.14,2.74,3.21.65,1.73-2,4-1.91.26-2,1.91-.19,2.53-3.61-.77-2.38,4.46.55L215,145.8Z"/><polygon class="cls-4" points="199.23 140.54 200.98 140.1 202.2 139.48 201.5 137.28 200.31 136.6 199.01 137.24 199.67 138.44 199.23 140.54"/><polygon class="cls-4" points="185.2 148.46 184.15 149.31 184.15 150 185.02 149.45 185.44 149.36 185.2 148.46"/><polygon class="cls-4" points="201.48 123.25 202.38 120.91 201.81 121.03 200.88 123.42 201.48 123.25"/><polygon class="cls-4" points="200.71 123.47 199.46 122.89 198.2 125.1 197.38 125.32 197.68 129.25 196.67 130.85 197.01 133.58 197.96 133.92 200.16 123.63 200.71 123.47"/><polygon class="cls-4" points="206.08 113.74 204.91 114.43 204.03 115.75 204.24 117.22 204.48 117.22 204.48 115.09 206.08 114.2 206.08 113.74"/><polygon class="cls-4" points="116.12 155.41 114.6 154.17 115.18 156.54 116.12 155.41"/><path class="cls-4" d="M115.62,152.06l2.75,1.31,4.52-6.45A35.19,35.19,0,0,0,115.62,152.06Z"/><polygon class="cls-4" points="122.66 99.58 123.53 100.46 123.82 99.67 122.66 99.58"/><polygon class="cls-4" points="149.73 87.73 150.66 85.38 147.92 86.88 148.61 87.47 149.73 87.73"/><polygon class="cls-4" points="131.79 130.43 138.89 120.73 136.96 113.81 141.01 113.83 140.62 109.44 139.17 106.29 145.03 107.86 149.89 99.78 145.57 94.26 148.35 93.98 151.72 96.58 153.14 95.15 147.9 89.52 142.75 91.02 133.19 89.83 129.86 93.42 134.64 97.14 137.8 105.63 133.33 107.59 134.89 113.06 130.28 113.82 129.79 123.71 126.87 134.02 126.71 140 132.4 142.23 134.03 136.07 131.79 130.43"/><path class="cls-4" d="M161.7,70.52l-2.75,1.21,2.34,1.08.94-2Z"/><path class="cls-4" d="M167.37,82.63,169,80.84l4.22.5-.77-7.43L177,76.24l-.87-7.41,1.53-5.18.37,1.88c.05.27,1.19,6.08,1.48,8.23l8.68-.27c.85-.82,5.42-5.19,7.79-6.52l-.17-6.36-4.47.34L184,59.09l4-1.35,6.57-.52,3.2-1-.2-7,3.49,2.14,1.93-.8-1.56,0,.05-3.08,3-2.27,4.94-7.19,1-5.34L213,30.25V28l-2-3.78-.87,1.4-10.76,4.73-6.38,4.32c-.11,0-10.54,2.3-13.72,4.25L182,47.12l-2.56.73-2.71-6,.32,4.51-4.78.67-1-2.36,1.68-1.07-4.7-2.35-4.09,7.85-2.14,2.18,1.79,6.66,5.5-.37.9,2.1-9.32,2.41v2.69l4.46,4.07,6,3-.05,2.82-6.77-.47-6.27,4.29-2-1.71-.73,0,4.24,9.91Z"/><polygon class="cls-4" points="207.03 52.68 210.44 48.42 205.72 50.53 203.18 50.58 207.03 52.68"/><path class="cls-4" d="M356.89,20.52l1.71,3.29,2.31,2.3,2.4-2.07,0,2.2,1.9-1.11-.73-1-.56-5.23-3.6-3.3a31.28,31.28,0,0,1-2.22-3.2l-1.42.43-2.43,3.25Z"/><polygon class="cls-4" points="367.82 22.95 368.49 23.93 369.23 22.6 367.82 22.95"/><polygon class="cls-4" points="377.66 21.23 376.65 21.89 377.85 22.66 377.66 21.23"/><polygon class="cls-4" points="372.69 32.02 374.23 33.07 375.92 30.85 376.32 24.09 373.1 24.29 374.64 28.73 372.69 32.02"/><path class="cls-4" d="M360.37,9.72l1.26.4L364,7.34l0,1.25a22.64,22.64,0,0,0,1.5,5l3,0L376.16,12l2.67,5.83,3.49,2.64,1.26-2.75H388l.63-3.6-2.28,2.09-2.1-.5.82-5-4.49,2.78-1.66-2,.11-2.23-2.35,1.67-.3-2.44-4.89-.55-.24,0-.13-.21C371,7.41,371,7.4,372.78,4l.08-.16L377,2.3l-1.53-4.12-7.67-1.87L367.55-7l-5-.15L359.7,4.18Z"/><path class="cls-4" d="M383.79,7.86a12.41,12.41,0,0,1,2.07-3.66l-.09-1.41-4.66,2.9A8.75,8.75,0,0,0,383.79,7.86Z"/><path class="cls-4" d="M398.24,1.34,399.9.69l-3-3.26L393.54,3.1l3,1.22C397.85,1.59,398,1.36,398.24,1.34Z"/><path class="cls-4" d="M348.67,560.73l-.94-3.05-2.68-2.7-5.12-1.75-.36.38h0l-.4.43,0,0-.25.27-.06.07-.16.16-.06.06-.1.09,0,0-.06.05,0,0,0,0h0l-.05,0-2.07.66-3,.38-1.47-1.46-.75,2.24-1.83.66-3.3,3.46-2.37,1.48h-3.7l-1.95,2-2.51,5.29-.26,0c-1.54.17-3.79,1.61-4.84,2.34l-.57.41-.27.21-2.85-2-3.7.82-2.05-2.7v-.8l-.85.09-2.47-1.12-1.33.75v2.27l-1,1.12.22,2.23-.41.09c-1,.21-3.67,1-4.56,1.82l-.44.43-2.8-5.08-5.76-2.76,0-.8-1.86.74-.09,1-3,1.12-1.75-.15-2.16,2.11-1.15.35c-.19,1.26-1,6.12-1.89,8.11l1.42,1.42,1.76-1.07,4.44,6.18,2.23,2.39-3.58-.12-1.82,5.62-2.38,1.45,1,.8-5.77,3.81,1,3.52-.51.93,6.78-2.46,1.2,2.29L274,607.35l-9.41,2.84-4.12,2.48,7.71,10.55,7.09,1-5,2.37-.68,3.37,2.44,3.63-4-1.2-2.37,2.54-5.31,8,1.94,1.86-2.08,3.51v1.25l2,2.32-.24,5.48c2.38,2.74,5.81,6.68,6.34,7.28l5.29,1.7.26.08.17.05,4.25,7,2.11-1,.71,2.22,1.63.74,2.63-2.84,1.47.85v-.74h.48l3.51.09c.33-.24,1.38-1.06,2.33-1.82l.14-.11,1.94.13a15.9,15.9,0,0,1-1-5.22l-1-1.68,3.26-6.94,1.13,2.75,1.58,1.63.47-.45v-1.4l3.79.13.09.33c.46,1.7,1.19,4.3,1.52,5.22l1.64.06,5-1.78h.8l-.81-2,1-2.89,3.62,1.38-1.81,2.84.49.52,1.8-.92,2.8,1.13.87,0,1.41-1,5.88-2,3.54,4.22.54-.95-2-5.11,2.74,0,3.08-1.65,1.46-1.36.93,2.3,1.46,1.25,1.2,3.67,1,1.41,3,0,5.63,1.63.86-3.26.14-.1a6.57,6.57,0,0,0,1.74-2.6l.11-.3h6.4l1.7-4.33,1.16-.93.89-2.19h3l2.37-5.3,2-.78.88-4.12-2.82-1.76-.06-1.75h4l.76-.91h.89v-.32l-1.87-2.73v-.13a7,7,0,0,0-.33-1.76,13.22,13.22,0,0,1-.53-2.72,17.36,17.36,0,0,1-3.13-4.53c-.34-.85-3.69-3.58-4.61-4.11a25.78,25.78,0,0,1-3.4-3.27l-1.23-.55-2.41-2.37L355,610.37,356.6,607a6.88,6.88,0,0,1-1.65-3.26l-.07-.29-3.75-2.75-2.95-.74,3.26-4.5,1.63-.87,1.52-.12.33.31.85-.89-1.15-2,1.87-.75-2.92-3-2.19,0-3-1.16.11-.81-4.36-1.9-1.1-1.83-.12-3.52,2.08-.75,1-2.92.21-.08a15.64,15.64,0,0,0,3.35-2.38v-2.46l-1-.77Z"/><polygon class="cls-4" points="423.11 725.56 422.08 731.56 427.46 728.73 432.84 731.56 431.81 725.56 436.17 721.32 430.15 720.45 427.46 715 424.77 720.45 418.75 721.32 423.11 725.56"/></g><path class="cls-5" d="M357.93,612.27l0,.06c.28.51.55,1,.8,1.54s.44,1.71.94,2.18a15.6,15.6,0,0,0,1.79,1.22c.42.28.85.55,1.25.86a4.32,4.32,0,0,1,.79.91,7.38,7.38,0,0,0,2,1.91c.28.17.58.31.88.45a9.49,9.49,0,0,1,2.85,2.74,16.1,16.1,0,0,1,2.51,3.63l1,1.88,1,1.81.5,1.78.17.5,1.05.22.67-.42.34-.09.88,0,.07-.13v0l.38-.81.39-.32,1.46-.34.31-.14s.72-.78.75-.79l.53-.2.43.06.35.18,0,0,0,0,.12.07.36.43.48.51.21-.18.3-.34-.09-.52,0-.22a.7.7,0,0,1,0-.1l0-.2,0-.08.17-.46.09-.12v0l.2-.24,1.68-1.16.29-.2.1-.07.46-.09.94.2.12,0,.66-.33.28-.06,1.13,0h.08l.58.43.17.63,1.51.69.26-.21.06,0,0,0,.13-.06.1-.05v-.07l0-.26-.29-.35-.13-.45s.08-.59.09-.61l0,0a.11.11,0,0,0,0,0l.1-.11a3,3,0,0,1,.21-.25s0-.06.07-.06l0-.05a3.46,3.46,0,0,0,.41-.12l.1-1.23.26-.43.06-.11.2-.18.31-.7.62-.34.29,0h.06l0,0,.14,0,.3.17.08,0,.59.72.05.06,2.42.28.66.17.78.16.31.17.07,0,.44.41.41-.22.79-.53.26-.09,1.15-.13.21-.34.39-1.23.26-.33.75-.49.17-.12.86-.82.06-.09.32-.23,1.57-.43h.42l.15-.13.11-.12.23-.26,0,0,0-.05.33-.18.82-.12.7-.14,1.23.2.35,0,.27,0,.37-.43.37-1.06.67-1.22.18-.35.09-.1,1.15-1.39.25-.18.37-.13.06,0-.38-1.36,0,0v0l.86-.65.53.31.69-.14,1.34-.15.7-.3.15-.13.36-.36.27-.28.14-.25.37-.75.07-.23-.17-.07-2.17-.44-.62-.11,0,0-.28-.14-.75-.65-.15-.12-.55-.19-.75-.24,0,0,0,0-.31-.3,0-.09,0,0,0-.16-.12-.34v-.25l0-.16.05-.37-.28-.35-1-.66-.25-.34-.06-.19-.75.12-.09,0-.2,0-.14,0h-.06l-.75-.49-.62-.14-2.28-.46-.47-.46-.28-1.41-.07-1.1-.14-.88.05-1.06V599l-.38-.86-.41-.81-.08-.74,0-.26-.72-1.53-.26-.53,0-.06,0-.09-.12-.44-.23-.75,0,0-.83-.77-.18-.33-.18-1.08-.14-.35-.17-.39,0-.31.08-.51.07-.74.06-.22.24-.44.39-.78.38-1.22-.48-.47L405,585l0-.1-.06-.08-.12-.29-.1-.9,0-.14h-.12l-.42.64-1.39,1-.08.34,0,.23-.08.24,0,.05-.61,1,0,0,0,0-.18.18-1.14,1.22-.05.39v.18l-.34.51-.29.13-.27.17-1.07.84-1.48.83-1.2.33a.44.44,0,0,1,0,.07l0,.41-.17.46-.27.26-.27.63-.33.32s-1.69.83-1.7.85l-.61,1.54s-.52.37-.56.37l-1,.08-.56-.3a.64.64,0,0,0-.06-.1l0-.09-.11-.2-.34.06-.22.09-.4.17-.28.09-.5.2h0l0,0h-.47l-.44-.2-.39-.13-.22-.06-.21-.24-.13-.12v0l-.07-.08v-.09l-1.82-.11-.24.75-.08.05,0,.06-.6.38-2.14-.18-.46.2-1.26.58h-.06l-.25,0h-.08l-.53-.08-1.32-.07L377,597l0-.08-.07-.06-.15-.62-.42-.18-.4-.16-.06,0-.12-.13-.16-.17v0l0,0-.09-.31-.08-.24-.49-1.22,0-.3.31-1.92,0-1.21,0-.14.13-.45,0-.12H375l-.18,0-.28-.1-.65-.13-1.8.56-1.56,1-1,.65-1,1.6-.55.68-.58.9s-.14.33-.15.34v0l-.66.33-1.06-.23-.15.33-.23.26-.35.21,0,.12-.29,1.12-.14.25-.36.38-.26.16-.1,0-.07,0-.2,0-.45.13-.17.05-.74.46-.84-.25v0h0l-.13-.34-.16-.36-.1,0-.53.49-.57.13-1-.3-.16,1,.07.13.12.19s.24.38.25.4l0,.06.08.35-.05.6-.13.32-.46.54-.53.7-.39.23-.55.07-.81.14.07.12,0,.08,0,.22.05.17-.1.71,1.39,1.44.24.62.05.09,0,.09.07.18,0,1.76-.13.35-.22.27-.17.3-.34.28-.66.2v.23c0,.17.38.55.47.69.25.37.46.75.67,1.14Z"/><path class="cls-5" d="M406.52,538.45a5,5,0,0,1-.69-.56.54.54,0,0,0-.2-.12.4.4,0,0,0-.21,0c-.23.07-.42.22-.65.3-.47.15-.95-.23-1.4,0a.23.23,0,0,1-.13,0c-.07,0-.11-.09-.13-.15a2.32,2.32,0,0,1-.19-.7c0-.1,0-.21,0-.31a5.86,5.86,0,0,0-.5-1.64,2.27,2.27,0,0,0-.39-.9.07.07,0,0,0,0,0l0,0a5.79,5.79,0,0,1-.68.49,1.55,1.55,0,0,0-.23.09.56.56,0,0,0-.14.16,7.45,7.45,0,0,1-.84,1,.87.87,0,0,0-.22.3c0,.08,0,.17-.05.26a1,1,0,0,1-.22.37,18,18,0,0,1-1.44,1.93c-.42.4-.49,1.08-.87,1.55a.51.51,0,0,1-.23.18.63.63,0,0,1-.42-.09c-1.34-.61-3,.15-4.35-.4-.06.65-.69,1.1-.93,1.71-.11.27-.14.56-.26.82-.28.61-1,1-1.42,1.53a2.33,2.33,0,0,1-1.07,1.8c-.08.07-.2.15-.29.08.47.4,1.14,1,.56,1.67a3.67,3.67,0,0,1-.4.32,2.44,2.44,0,0,0-.37.52c-.2.3-.83.63-.9.95,0,.17.19.41.17.6l-.05.37,0,.3-.27.46-.18.11,0,.78,0,.11,0,.09v.05l0,.11-.07.22-.51.57-.26.17-.84.27-.14.15-.36.51-.08.56,0,.38.08.44s0,.07,0,.08l0,.29-.33.93-.08.55.27,2-.08.81,0,0-.18.2-.22.25-.07.08-1,.17-.52.13-.71-.1-.83.81-.49.16-.45-.06-.06,0h-.07l-.33-.09-1.25-.29-.15.07-.16.09-.41.28-.39.11-.07.53-.06.65.3,2.58,0,1.33L377,569l-.56.47h-.1l-.68.06-.5.34-.25,1.1.12,1.36.45,2.22v.21l0,.09,0,.23v.67l.35.8.07.16.38.82v.08l.19,3.5.23,1.26-.32,2.61.34.44.35.35.75.15.47.52,0,.48,0,.42,0,.07v.19l-.17.48-.11.46-.29.37-.51.27-.52.32-.18,0-.07,0-.28,1v1.46l-.27,1.37v.08l.15.41.17.41.12.39.07.16.93.41.33.38.15.56.61.09.44.06.4,0,1.06-.46.63-.29h.06l.06,0,.27,0,1.78.12.27-.77.6-.39,2.75.13.22.2s.31.27.31.28l0,0,0,.2.23.1.49.13,1.44-.58.8-.1.6.32.21.41h.2l.18-.41.39-1,.28-.31h0l.08-.08,1.2-.54.46-.22.13-.27.2-.43.16-.17s0-.23,0-.25l-.13-.3.06-.11v-.07l.17-.25.18-.35.08,0,0,0,1-.21.64-.15.1-.05,1.91-1.35.68-.4,0-.42.17-.38.91-.91.34-.36.47-.68.24-.46,0-.21,0-.43,0,0v-.06l.24-.39,1.37-1,.25-.33.21-.34.49-.27.06,0h.47l0-.17,0-.18-.31-.55-.52-.83-.08-.38.16-.76a.37.37,0,0,0,0-.1l.34-.56.33-.56.41-.28h0l0,0,1.44-.23.22-.77.17-.7.4-.42,1.88-.54.46-.37.24-.11.3-.07v-.45l-.83-1.15-.3-.42-.1-.41.07-.51.1-.25.19-.27.28-.45.07-.48,0,0-.31-.21-.25-.56.09-.67.23-.38.41-.31v0l0-.48.07-.52V567l0-.23.08-.61,0-.15v-.05l.14-.53.06-.45-.32-.06-.34,0-.13-.05-.14,0-.72-.44-.28-.46v-.17l0,0v-.22l0-.09v-.11l.14-.24,0-.05,0-.08,0,0,1.13-.89.48-.75.5-.27h.53l.37,0,.49-.27.36-.24.33-.1h.77l.06-.16,0,0,0-.08.05-.09.25-.56,0,0v-.07l-.1-.16-.27-.35-.33-.66-.14-.24-1.34-.16-.27.08-.23.08-.06.33-.11.1v0l-.15.11-.23.22h-.07l-.13.1h-.69l-.11,0h-.19l-.3-.1-.22-.14-.13,0-.66-.38-.25-.7a.15.15,0,0,0,0-.07l.48-1.29s.08-.49.08-.51l-.18-.34-.07-.12,0-.2a.42.42,0,0,1,0-.05l0-.12,0-.11v-.27l.06-.12v0l.06-.1.11-.22,0,0,0,0,.21-.14.12-.09.89-.69.17,0-.13-1.86-.06-.2-.11-.25,0-.24,0-.1.13-1.14v-1.2l-.91-.46-.3-.52,0-.73v-.12l.12-.27,0-.1.21-.22.16-.23,0-.15,0-.29.07-.24.14-.72v0l-.06-.1-.85-1.28-.83-1.15-.11-.4c0-.15.12-1.84.43-1.72-.41-.15-.81-.29-1.23-.41A1.1,1.1,0,0,1,406.52,538.45Z"/><path class="cls-5" d="M344.41,527.61c0,.22-.22.37-.29.58s0,.46,0,.69-.23.36-.43.5a.41.41,0,0,0-.1.09c-.09.13,0,.31,0,.46a.86.86,0,0,1-.05.59,1.88,1.88,0,0,1-.89.32l-.4,0a2.14,2.14,0,0,0-.64.21s-.42.31-.37.32a1.4,1.4,0,0,0,.31,0,2.62,2.62,0,0,0,.07.9,4,4,0,0,1,.16.37.37.37,0,0,1-.08.38h.32a.61.61,0,0,0,.29.65,9.2,9.2,0,0,1-.67,1.22c-.21.33-.3.68-.5,1a2.94,2.94,0,0,1-.39.43l-.66.77a1.32,1.32,0,0,0,.33.62,1.71,1.71,0,0,1,.39.45,1,1,0,0,1,.06.36l.11,2.36a3.91,3.91,0,0,1,0,.64c0,.15-.05.3-.06.45a2.76,2.76,0,0,0,.09.62,3.29,3.29,0,0,1-.22,2.21c-.1.19-.23.37-.33.56a5.16,5.16,0,0,0-.41,2.49,12.49,12.49,0,0,1-.06,1.9,2.38,2.38,0,0,0-.05.45c0,.35.23.67.26,1a3.64,3.64,0,0,1-.13.87.35.35,0,0,0,0,.19c.07.17.31.16.49.14a5.13,5.13,0,0,1,2.42.77,8.57,8.57,0,0,0,1.68.5,3.71,3.71,0,0,1,.73.2,2.9,2.9,0,0,1,.91.7,11.46,11.46,0,0,0,1.08,1.25l.64.49.18.23a.48.48,0,0,0,0,.08,1.24,1.24,0,0,1,.15.33,1.77,1.77,0,0,0,.28.4,4.51,4.51,0,0,1,.81,1.68c0,.16.07.31.13.47a3.15,3.15,0,0,1,.36,1c0,.34-.22.64-.22,1s.11.47.12.72-.1.52-.1.79.11.33.09.51v0l0,.26-.12.87-.19.85,0,.19,0,.22.07.35.11.53.1.33v.09l0,.17-.18,1.3.11,0,.26,0,.49.38.11.31.05.1,0,.1.06.16,0,.26a8.76,8.76,0,0,0-.15,2l.14,1.29a.42.42,0,0,1,0,.16.38.38,0,0,1-.07.12,2.28,2.28,0,0,1-1.64.9,3.43,3.43,0,0,0-1,.45c-.24.11-.51.2-.73.34s-.55.43-.84.62c-.06.35-.33.69-.34,1a1.53,1.53,0,0,0,0,.24,1.67,1.67,0,0,1-.23.85c-.12.28-.16.58-.27.87a.18.18,0,0,1,0,.07.2.2,0,0,1-.13,0l-.54,0c-.22,0-.2.08-.33.2s-.63.3-.63.32l0,.3a1.81,1.81,0,0,0,.13.58,2.61,2.61,0,0,1,.23.75c0,.42-.28.85-.12,1.23a1.37,1.37,0,0,0,.22.32c.13.16.23.44.39.57a1.39,1.39,0,0,0,.5.15l.92.24,1,.23.24.11.24.19.35.19.53.51,0,0,.31.3,0,0,.17.16.16.25a1.34,1.34,0,0,1,.18.61,11.81,11.81,0,0,0,1.85.63c.45.08.78-.24,1.24-.19a10.43,10.43,0,0,1,1.91.45,3.63,3.63,0,0,1,.9.73l1.05,1.33.68.85,1.07,1.35a8.08,8.08,0,0,1-1.86.77c-.1,0-.22.08-.2.18a.81.81,0,0,1,.38.43l.69,1.3a.14.14,0,0,1,0,.21l-.94.82a.88.88,0,0,1-.76.3H355a4.06,4.06,0,0,1-.57-.14,3.5,3.5,0,0,0-.74.07,3.15,3.15,0,0,0-.49.08l-.25.06a2.45,2.45,0,0,1-.36,0,.94.94,0,0,0-.68.26l-.38,1-.53.38-.06.46v0l-.18.34-.26.25-.42.39-.09.09s0,.18,0,.19c.18.38.85.51,1.2.66a7.37,7.37,0,0,1,1.52,1l1.5,1.15a1.65,1.65,0,0,0,.43.29c.19.06.2,0,.31-.17l.41-.25,1-.13.64-.1,0,0,.7-.9,0-.26-.24-.47-.18-.28-.09-.39.27-1.91s.72-.48.74-.48l.13,0,1.23.3.08-.07.2-.22.31-.17.75-.15.21-.06.75.53,0,.37.47-.23.62-.13.09,0,.17-.18.4-1.36.28-.34.06,0,.27-.16.18-.61.69-.4.13,0,0,0,1,.25.25-.51.6-.75.77-1.15.52-.89.19-.2.61-.37,2.41-1.51.27-.08,1.69-.57h.39l.73.26.13,0,.22,0h.9l0,0,.28-.08.34-.18.38-.27.1-.32.08-.34,0-.26-.5-.16-.13,0-.32-.2-.7-.84-.13-.13,0,0,0-.05-.13-.39,0-.86.28-2.07-.18-1-.13-2.39-.07-1.17-.27-.63s-.53-1.14-.53-1.17l0,0,0-.63,0-.39-.31-1.23-.09-.73,0-.14,0-.22-.08-.6-.18-1,.07-.3.07-.49.14-.42.11-.47.23-.34.79-.56.36-.11.5,0,.17-.83,0-.62-.21-2.1-.16-1.4.2-1.43.42-.48h0l0,0,.33-.09.66-.34.33-.25.51-.09,1,.28.63.16.28,0,.91-.85.52-.15.7.15h.06l.81-.16,0-.18,0-.31-.27-1.87.06-.37.06-.57,0-.16.31-.72v-.13l-.11-.78,0-.15.11-.76.13-.29.73-.84.26-.17.95-.31.15-.17,0-.63.07-.62.28-.42.1-.06.13-.11a.81.81,0,0,0,0-.15l-.16-.24-.8-.21-.38-.08a1.13,1.13,0,0,0-.8.09l-1,.41a.29.29,0,0,1-.14,0,.38.38,0,0,1-.15-.08,2.57,2.57,0,0,0-.53-.2c-.88-.32-1.19-1.43-2-2a1.83,1.83,0,0,1-.51-.38c-.11-.15-.19-.37-.38-.36s-.16.08-.25.1-.16,0-.24,0-.44.38-.58.54-.46.6-.69.9a10.07,10.07,0,0,0-2.91-1.36l.1-1.66a4.61,4.61,0,0,0-2.49,0,1.44,1.44,0,0,1-1.62,1.55c-.32-.06-.66-.33-.6-.66L367.4,548a8.07,8.07,0,0,1-2.48-2.17,6.9,6.9,0,0,1-1.21,1.47L361.93,545a16.31,16.31,0,0,1-1-1.41,12.1,12.1,0,0,1-.95-1.93,8,8,0,0,0-.39-1c-.16-.28,0-.31.12-.58a4,4,0,0,0,.23-.51c.12-.33.23-.71.55-.84a6.34,6.34,0,0,1-1.25-2.14,3.16,3.16,0,0,0-.16-.42,2.64,2.64,0,0,0-.28-.4q-.79-1-1.52-2.09c-.39-.57-.76-1.16-1.13-1.74l-.57-.9a2.44,2.44,0,0,1-.23-.77,3.09,3.09,0,0,0-.63-.92,3.73,3.73,0,0,1-.53-1.59l-.21-1.24a2,2,0,0,0-.22-.73c-.25-.41-.75-.59-1.15-.86a5.41,5.41,0,0,1-.57-.49,7,7,0,0,0-1.81-1.3,2.85,2.85,0,0,1-1.12-.65,1.39,1.39,0,0,0-1,.56c-.26.3-.45.65-.73.93a8.53,8.53,0,0,1-1.6,1,1.53,1.53,0,0,0-.66.69,1.49,1.49,0,0,0-.07.63,2.32,2.32,0,0,1,0,.79A.57.57,0,0,1,344.41,527.61Z"/><g class="cls-6"><polygon class="cls-7" points="366.35 547.09 366.35 547.09 366.21 546.86 366.24 546.94 366.35 547.09"/><path class="cls-4" d="M414.66,619.21l-.41,1.16-.84,1-1.17-.13-1.07-.17-1.27.24-.5.52-.29.26h-.67l-1.32.4-1.21,1.11-.69.48-.44,1.27-.46.76-1.55.19-1.19.73-.63.34-1-.89-1.27-.3-2.74-.32-.87-1,0,0-.26.57-.37.45-.1,1.11-.12.61-.75.24-.06.07V628l.42.51-.15,1.31-.67.34-.67.55-2.49-1.14-.3-.79-.73,0h0l-1.08.45-1-.21-.14.07-1.8,1.31-.15.52.15.88-.91,1-.72.63-1.63-1.66-.1,0-.7.75-.68.29-1.28.32-.67,1.35-1.37-.06h0l-.89.55-2-.43-.35-1-.48-1.71,0-.07a3.4,3.4,0,0,0,.17.64,7.27,7.27,0,0,1,.41,2l1.89,2.76v1.55h-1.39l-.76.91h-3.52v.28l3,1.84L371.48,647l-2.11.82-2.46,5.5H364l-.62,1.51,3.74,6.84-3.47.68.7.76-1.06,2.57,0,.65,1-.06-.13,5.69,4.66.73,0,.38,2.58-2.08.1-2.8,7.37-1.78-.1-1.2,5.57,1,1.7,4.54,1-.58v-1l2.75-1.57-1.67-2.48.08-3.47.35-.08,3.06-.74c0-.2,0-.49.05-.74l0-.47,1.36.08,1.81-1.84,3.68-.94h2.49l1.8-3.17-1.11-3.06,3.42-1.25,2.16,2.33v-.27l3.33-3.7-2.16-.65,5.33-1c0-.17,0-.31,0-.42-.19-.2-.47-.52-.94-1.05l-.07-.1-1-2,5.8-4h1.05l2.5-4.68h1V631L420,626.63l-.47-2.74-2.71.19-2.28-2.35,2.08-2.89-.82-1.47-.37.44Z"/><path class="cls-7" d="M369.45,625.37a11.54,11.54,0,0,0,.6,1.09l-.42-.88Z"/><path class="cls-4" d="M448.26,590.35c.18,0,.25,0,3.59,2.32l4.54-6.44,11.9-6-.12-3.17,1.91-7-3.65-16.23-3.32-4-3.38-6.9-3.61-4.13-.49-.39-3.77,1-.57-.66-1.55,6-3.54,1.1-2.95-5-1-4.85,1.8-3.25-4.9-4.14L435.36,533l-3.6-2-3.61,1.46,4.72,2.69-5.16,2.05,1.12,2.87-5,1.2h0l-5.67-1.07,1.15-3L413.6,534a57.24,57.24,0,0,1-3.5,5.09l-.16.22-.9-.11-.36.45-.11,1v0l.72,1,1,1.6.08.36-.38,1.86-.47.69v.33h0l1.19.6V549l-.11,1,.21.79.19,2.68-.77.21-1,.75v.18l.34.74-.17.95-.36,1h0v.07l.91.38h.24l.1-.08.1-.56,1.29-.43,2,.25,1.26,2.14-.15.73-.38.86-.24.65h-1.36l-.24.16-.74.41-1,.1-.44.68-1.17.95,0,0,.51.27.61.1.92.18-.21,1.51-.18.67-.19,1.35,0,.44,0,.53-.65.54,0,.19,0,0,.21.16.37.35-.14,1.21L410,572l0,.2v0l1.2,1.67v1.57l-1,.23-.53.42-1.84.56-.51,1.86-2,.35-.52.89-.08.4h0l.93,1.56-.13.76-.1.44.12.49.11.86.1.12.06.18.83.81-.63,2-.6,1.18-.12,1.07v0l.33.85.17,1,.91.84.11.29.39,1.26.23.45.82,1.85.1.84.33.65.49,1.11-.05,2,.12.78.08,1.12.29,1.1,2.76.57.86.52,1.46-.23.27.92,1,.65.66.81-.11.84v.08h0l.12.27,1.25.42,1,.85,3,.66.83.35-.39,1.24-.67,1.24-1,.94-1.12.44-1.34.15-1,.21,0,0,.35,1.28-1.18.55-.15.18H417l1.59-1h5.82l2.92-1.08,2.52,2.79,1.54-1.75H433l3.33,2.81,2.57-1.92h3.74l-.19,1,4.69-.84,2.64-3.75,4.4-.87L459,610.3l1.34-2.81-2.23-1.75-.15-1.92-3.29-3.69L448,598.94l-3.3.45-.07-.46c-.07-.47-.16-1-.2-1.22l0-.06v-.16c0-.37,0-.4,4.82-2.78a31.78,31.78,0,0,1-1.41-3.89v-.47Z"/></g><circle class="cls-8" cx="378.24" cy="603.24" r="87.79"/><path class="cls-9" d="M561.24,563.43a188,188,0,0,1,4.24,39.81c0,103.41-83.83,187.24-187.24,187.24S191,706.66,191,603.25,274.83,416,378.24,416a187.47,187.47,0,0,1,49.16,6.52"/><path class="cls-9" d="M25.62,396c71.1-120.71,202.4-201.7,352.61-201.7a412.6,412.6,0,0,1,56.29,3.84"/><path class="cls-9" d="M225.9,859.7C138.54,807.69,80,712.31,80,603.25,80,438.53,213.53,305,378.23,305q9.78,0,19.4.62"/><path class="cls-9" d="M84.53,166.53A523.76,523.76,0,0,1,378.23,77q13.74,0,27.31.7"/><circle class="cls-10" cx="378.24" cy="603.25" r="5.4"/><circle class="cls-11" cx="378.24" cy="603.24" r="7.72"/><text class="cls-12" transform="translate(392.86 609.09)"><tspan class="cls-13">L</tspan><tspan class="cls-14" x="8.4" y="0">oughbo</tspan><tspan class="cls-15" x="65.49" y="0">r</tspan><tspan x="71.4" y="0">ough</tspan></text><text class="cls-16" transform="translate(425.61 652.9)"><tspan class="cls-17">L</tspan><tspan x="7.55" y="0">ei</tspan><tspan class="cls-18" x="18.9" y="0">c</tspan><tspan class="cls-19" x="26.1" y="0">es</tspan><tspan class="cls-20" x="40.31" y="0">t</tspan><tspan x="45.34" y="0">e</tspan><tspan class="cls-21" x="53.2" y="0">r</tspan><tspan class="cls-22" x="58.36" y="0">shi</tspan><tspan class="cls-23" x="77.01" y="0">r</tspan><tspan class="cls-19" x="82.05" y="0">e</tspan></text><text class="cls-16" transform="translate(269.52 551.06)">De<tspan class="cls-17" x="18.59" y="0">r</tspan><tspan class="cls-24" x="23.7" y="0">b</tspan><tspan class="cls-25" x="32.32" y="0">y</tspan><tspan x="39.29" y="0">shi</tspan><tspan class="cls-23" x="57.94" y="0">r</tspan><tspan x="62.98" y="0">e</tspan></text><line class="cls-26" x1="420.31" y1="647.61" x2="383.04" y2="621.21"/><circle class="cls-10" cx="382.68" cy="621.36" r="2.89"/><line class="cls-26" x1="317.87" y1="557.19" x2="357.1" y2="572.21"/><circle class="cls-10" cx="357.61" cy="571.8" r="2.89" transform="translate(-294.02 745.68) rotate(-72.92)"/><text class="cls-16" transform="translate(357.31 510.63)">No<tspan class="cls-27" x="18.72" y="0">t</tspan><tspan x="23.82" y="0">ti</tspan><tspan class="cls-28" x="32.59" y="0">n</tspan><tspan x="41.42" y="0">ghamshi</tspan><tspan class="cls-23" x="99.25" y="0">r</tspan><tspan x="104.3" y="0">e</tspan></text><line class="cls-26" x1="385.42" y1="518.05" x2="391.45" y2="562.32"/><circle class="cls-10" cx="391.35" cy="562.7" r="2.89" transform="translate(-292.29 513.43) rotate(-51.06)"/><text class="cls-29" transform="translate(365.2 583.78)"><tspan class="cls-21">E</tspan><tspan x="8.67" y="0">ast Midla</tspan><tspan class="cls-30" x="70.19" y="0">n</tspan><tspan class="cls-22" x="79.25" y="0">ds</tspan></text></g></svg>