<svg xmlns="http://www.w3.org/2000/svg" viewBox="0 0 107.38 20.13"><defs><style>.cls-1{fill:#030303;}.cls-2,.cls-3{fill:#faa635;}.cls-2{fill-rule:evenodd;}</style></defs><title>sintec</title><g id="Layer_2" data-name="Layer 2"><g id="wireframe"><rect class="cls-1" width="107.38" height="20.13" rx="6.71" ry="6.71"/><path class="cls-2" d="M10.43,11.83h4.44v.09c0,.37.22.62.65.75a6,6,0,0,0,1.61.15h1.16a5.75,5.75,0,0,0,1.32-.11q.58-.15.58-.6v-.41q0-.41-.58-.57A8.32,8.32,0,0,0,18.34,11l-3.76-.23a7.09,7.09,0,0,1-3.09-.7,1.86,1.86,0,0,1-1-1.71V7.8a2.11,2.11,0,0,1,1.5-2,11.74,11.74,0,0,1,4.19-.51H19q5.33,0,5.33,2.18v.63H19.87V8a.6.6,0,0,0-.44-.6,4.16,4.16,0,0,0-1.24-.13H17.12a7.54,7.54,0,0,0-1.3.08c-.42.09-.63.26-.63.52v.37q0,.49,1.88.6l3.42.21q4.37.26,4.38,2.27v.9a2.1,2.1,0,0,1-1.37,1.88,8,8,0,0,1-3.54.67H16.2a13.85,13.85,0,0,1-4.06-.44q-1.71-.55-1.71-1.9Z"/><rect class="cls-3" x="26.52" y="5.38" width="4.82" height="9.37"/><polygon class="cls-2" points="33.73 14.75 33.73 5.38 40.68 5.38 46.1 12.3 46.1 5.38 50.59 5.38 50.59 14.75 43.61 14.75 38.17 7.73 38.17 14.75 33.73 14.75"/><polygon class="cls-2" points="56.55 14.75 56.55 7.47 52.21 7.47 52.21 5.38 65.45 5.38 65.45 7.47 61.12 7.47 61.12 14.75 56.55 14.75"/><polygon class="cls-2" points="67.59 14.75 67.59 5.38 79.46 5.38 79.46 7.47 71.86 7.47 71.86 9.07 79.23 9.07 79.23 10.89 71.86 10.89 71.86 12.66 79.63 12.66 79.63 14.75 67.59 14.75"/><path class="cls-2" d="M96.95,11.11v.27A2.73,2.73,0,0,1,95.34,14a12.4,12.4,0,0,1-5.23.81H88.42q-4,0-5.63-.89A3,3,0,0,1,81.3,11V9.11A3,3,0,0,1,82.8,6.22q1.59-.9,5.65-.9h1.38A14.45,14.45,0,0,1,95.25,6,2.66,2.66,0,0,1,96.9,8.67v.18h-5V8.69a.93.93,0,0,0-.67-.92,6.1,6.1,0,0,0-2-.23A3.94,3.94,0,0,0,86.89,8a1.78,1.78,0,0,0-.36,1.33v1.51a1.78,1.78,0,0,0,.35,1.32,4,4,0,0,0,2.35.45,5.41,5.41,0,0,0,2.08-.28,1,1,0,0,0,.6-1v-.21Z"/></g></g></svg>