<svg xmlns="http://www.w3.org/2000/svg" viewBox="0 0 30 30"><defs><style>.cls-1{fill:#50abf1;}.cls-2{fill:#fff;}</style></defs><title>twitter</title><g id="Layer_2" data-name="Layer 2"><g id="wireframe"><rect class="cls-1" width="30" height="30" rx="2.73" ry="2.73"/><path class="cls-2" d="M4,22.21A12.92,12.92,0,0,0,23.79,11.29c0-.18,0-.35,0-.53A10.15,10.15,0,0,0,26,8.46a10.49,10.49,0,0,1-2.56.66h0a4.8,4.8,0,0,0,2-2.52,15.7,15.7,0,0,1-2.2.92l-.66.2a4.53,4.53,0,0,0-7.72,4.12,13.65,13.65,0,0,1-9.3-4.7s-2.17,3,1.29,6a4.65,4.65,0,0,1-2-.58,4.31,4.31,0,0,0,3.58,4.5,4.15,4.15,0,0,1-2,.08,4.47,4.47,0,0,0,4.17,3.16A8.71,8.71,0,0,1,4,22.21Zm0,0"/></g></g></svg>