<svg xmlns="http://www.w3.org/2000/svg" viewBox="0 0 60.41 23"><defs><style>.cls-4{fill:#fff}.cls-3{fill:#242a30}</style></defs><g id="Layer_2" data-name="Layer 2"><g id="wireframe"><g opacity=".6" id="sem_logo" data-name="sem logo"><circle cx="11.5" cy="11.5" r="11.5" opacity=".2" fill="#fff"/><circle class="cls-3" cx="11.5" cy="11.5" r="8.9"/><circle class="cls-3" cx="5.67" cy="4.91" r="1.38"/><circle class="cls-3" cx="17.33" cy="4.91" r="1.38"/><path class="cls-4" d="M4.29 5.85v9.3a2 2 0 0 0 2 2h3.6l-1-2.76H7V10h3.39v4.1h2.12V9.96H16v4.47h-1.9L13 17.18h3.68a2 2 0 0 0 2-2V5.85z"/><path class="cls-3" d="M18.71 7.36l-2.76-1.51v-.94h2.76v2.45z"/><path class="cls-4" d="M7 13.3h-.82V15h2v-.61A1.12 1.12 0 0 1 7 13.3z"/><path class="cls-3" d="M7.05 5.85L4.29 7.36V4.91h2.76v.94z"/><path class="cls-4" d="M7 11.08h-.82V9.35h2V10A1.12 1.12 0 0 0 7 11.08zm3.44 0h.87V9.35h-2V10a1.12 1.12 0 0 1 1.13 1.08zm2.13 0h-.87V9.35h2V10a1.12 1.12 0 0 0-1.13 1.08zm3.43 0h.87V9.35h-2V10A1.12 1.12 0 0 1 16 11.08zm0 2.22h.87V15h-2v-.61A1.12 1.12 0 0 0 16 13.3zm10.29 4.05v-4h2a2.26 2.26 0 0 0 .56 1.65 1.73 1.73 0 0 0 1.23.52 1.23 1.23 0 0 0 .91-.38 1.21 1.21 0 0 0 .37-.88 1.23 1.23 0 0 0-.36-.91 5.14 5.14 0 0 0-1.32-.84 10.26 10.26 0 0 1-2.76-1.73 2.79 2.79 0 0 1-.73-2 3 3 0 0 1 1-2.38 3.21 3.21 0 0 1 2.18-.84 2.49 2.49 0 0 1 2.12 1.04v-1h2v3.59h-2a2 2 0 0 0-.57-1.28 1.57 1.57 0 0 0-1.11-.45 1.31 1.31 0 0 0-.83.26.83.83 0 0 0-.34.68 1 1 0 0 0 .28.69 5.54 5.54 0 0 0 1.63.92 13.61 13.61 0 0 1 2 1 3.38 3.38 0 0 1 1.1 1.22 3.57 3.57 0 0 1 .4 1.73 3.27 3.27 0 0 1-1 2.61 3.54 3.54 0 0 1-2.39.88 2.77 2.77 0 0 1-2.38-1.14v1zm8.16 0v-1.98h1.41V7.61h-1.41V5.63h10.33v3.71h-2.24V7.61h-3.63v2.7h2.93v1.98h-2.93v3.08h3.63v-1.75h2.24v3.73H34.45zm25.96-9.74V5.63H55.3l-2.24 6.86-2.24-6.86H45.7v1.98h1.09v7.76H45.7v1.98h4.31v-1.98H48.9V7.61h.02l3.2 9.74h1.87l3.2-9.74h.02v7.76H56.1v1.98h4.31v-1.98h-1.09V7.61h1.09z"/></g></g></g></svg>