<svg xmlns="http://www.w3.org/2000/svg" viewBox="0 0 30 30"><g data-name="Layer 2"><rect width="30" height="30" rx="2.73" ry="2.73" fill="#fedb00"/><path d="M12.45 9.38c-.24 0-.33.1-.53.42-1.37 2.1-5.25 8-5.87 9A2.71 2.71 0 0 0 5.5 21a1.62 1.62 0 0 0 1.36 1.2.54.54 0 0 0 .49-.2c1-1.24 6.63-8.78 7.68-10.2a.33.33 0 0 0 0-.44 5.46 5.46 0 0 0-1.51-1.58 2.05 2.05 0 0 0-1-.37h-.07"/><path d="M25.3 21.65c-1.17-2.51-6.85-14.24-8.08-16.94-.64-1.39-1.3-3.14-1.89-4.72H8.26c.1 2.39.14 3.59-.25 4.72-.68 2-2.87 4.06-4.39 5.67-.52.55 1.6 2 3.85.28.82-.64 2.11-1.9 3.15-2.72a2.22 2.22 0 0 1 1.71-.46 3.11 3.11 0 0 1 2.06 1.25 27.31 27.31 0 0 1 2 3c1.49 2.44 3.17 5.21 5 8.06a4 4 0 0 0 3.8 2c.14.06.16-.03.11-.14zM2.71 24.57a2.71 2.71 0 0 0 2.67 2.67h19.17a2.73 2.73 0 0 0 2.72-2.68z"/></g></svg>